Avara.ufo
<glyph name="exclam" format="1">
  <advance width="240"/>
  <unicode hex="0021"/>
  <outline>
    <contour>
      <point x="80" y="800" type="line"/>
      <point x="160" y="800" type="line"/>
      <point x="200" y="760" type="line"/>
      <point x="200" y="640" type="line"/>
      <point x="120" y="240" type="line"/>
      <point x="80" y="240" type="line"/>
      <point x="40" y="640" type="line"/>
      <point x="40" y="760" type="line"/>
    </contour>
    <contour>
      <point x="120" y="0" type="line"/>
      <point x="40" y="40" type="line"/>
      <point x="40" y="80" type="line"/>
      <point x="80" y="160" type="line"/>
      <point x="120" y="160" type="line"/>
      <point x="200" y="120" type="line"/>
      <point x="200" y="80" type="line"/>
      <point x="160" y="0" type="line"/>
    </contour>
  </outline>
</glyph>
<glyph name="quotedbl" format="1">
  <advance width="360"/>
  <unicode hex="0022"/>
  <outline>
    <contour>
      <point x="80" y="560" type="line"/>
      <point x="40" y="720" type="line"/>
      <point x="40" y="760" type="line"/>
      <point x="80" y="800" type="line"/>
      <point x="120" y="800" type="line"/>
      <point x="160" y="760" type="line"/>
      <point x="160" y="720" type="line"/>
      <point x="120" y="560" type="line"/>
    </contour>
    <contour>
      <point x="240" y="560" type="line"/>
      <point x="200" y="720" type="line"/>
      <point x="200" y="760" type="line"/>
      <point x="240" y="800" type="line"/>
      <point x="280" y="800" type="line"/>
      <point x="320" y="760" type="line"/>
      <point x="320" y="720" type="line"/>
      <point x="280" y="560" type="line"/>
    </contour>
  </outline>
</glyph>
<glyph name="numbersign" format="1">
  <advance width="680"/>
  <unicode hex="0023"/>
  <outline>
    <contour>
      <point x="480" y="720" type="line"/>
      <point x="560" y="720" type="line"/>
      <point x="520" y="560" type="line"/>
      <point x="600" y="560" type="line"/>
      <point x="600" y="480" type="line"/>
      <point x="500" y="480" type="line"/>
      <point x="460" y="320" type="line"/>
      <point x="560" y="320" type="line"/>
      <point x="560" y="240" type="line"/>
      <point x="440" y="240" type="line"/>
      <point x="400" y="80" type="line"/>
      <point x="320" y="80" type="line"/>
      <point x="360" y="240" type="line"/>
      <point x="240" y="240" type="line"/>
      <point x="200" y="80" type="line"/>
      <point x="120" y="80" type="line"/>
      <point x="160" y="240" type="line"/>
      <point x="80" y="240" type="line"/>
      <point x="80" y="320" type="line"/>
      <point x="180" y="320" type="line"/>
      <point x="220" y="480" type="line"/>
      <point x="120" y="480" type="line"/>
      <point x="120" y="560" type="line"/>
      <point x="240" y="560" type="line"/>
      <point x="280" y="720" type="line"/>
      <point x="360" y="720" type="line"/>
      <point x="320" y="560" type="line"/>
      <point x="440" y="560" type="line"/>
    </contour>
    <contour>
      <point x="260" y="320" type="line"/>
      <point x="380" y="320" type="line"/>
      <point x="420" y="480" type="line"/>
      <point x="300" y="480" type="line"/>
    </contour>
  </outline>
</glyph>
<glyph name="dollar" format="1">
  <advance width="600"/>
  <unicode hex="0024"/>
  <outline>
    <contour>
      <point x="280" y="880" type="line"/>
      <point x="320" y="880" type="line"/>
      <point x="320" y="-80" type="line"/>
      <point x="280" y="-80" type="line"/>
    </contour>
    <component base="S"/>
  </outline>
</glyph>
<glyph name="ampersand" format="1">
  <advance width="680"/>
  <unicode hex="0026"/>
  <outline>
    <contour>
      <point x="680" y="400" type="line"/>
      <point x="600" y="320" type="line"/>
      <point x="520" y="200" type="line"/>
      <point x="680" y="0" type="line"/>
      <point x="640" y="-40" type="line"/>
      <point x="480" y="120" type="line"/>
      <point x="400" y="40" type="line"/>
      <point x="320" y="0" type="line"/>
      <point x="160" y="0" type="line"/>
      <point x="40" y="80" type="line"/>
      <point x="0" y="160" type="line"/>
      <point x="0" y="240" type="line"/>
      <point x="80" y="360" type="line"/>
      <point x="200" y="440" type="line"/>
      <point x="120" y="520" type="line"/>
      <point x="80" y="600" type="line"/>
      <point x="80" y="680" type="line"/>
      <point x="160" y="760" type="line"/>
      <point x="240" y="800" type="line"/>
      <point x="320" y="800" type="line"/>
      <point x="440" y="760" type="line"/>
      <point x="480" y="680" type="line"/>
      <point x="480" y="600" type="line"/>
      <point x="440" y="520" type="line"/>
      <point x="320" y="440" type="line"/>
      <point x="480" y="240" type="line"/>
      <point x="520" y="320" type="line"/>
      <point x="480" y="400" type="line"/>
    </contour>
    <contour>
      <point x="240" y="400" type="line"/>
      <point x="160" y="320" type="line"/>
      <point x="120" y="200" type="line"/>
      <point x="160" y="80" type="line"/>
      <point x="280" y="40" type="line"/>
      <point x="360" y="80" type="line"/>
      <point x="440" y="160" type="line"/>
    </contour>
    <contour>
      <point x="280" y="760" type="line"/>
      <point x="200" y="720" type="line"/>
      <point x="160" y="640" type="line"/>
      <point x="200" y="560" type="line"/>
      <point x="280" y="480" type="line"/>
      <point x="360" y="560" type="line"/>
      <point x="400" y="640" type="line"/>
      <point x="360" y="720" type="line"/>
    </contour>
  </outline>
</glyph>
<glyph name="quotesingle" format="1">
  <advance width="200"/>
  <unicode hex="0027"/>
  <outline>
    <contour>
      <point x="80" y="560" type="line"/>
      <point x="40" y="720" type="line"/>
      <point x="40" y="760" type="line"/>
      <point x="80" y="800" type="line"/>
      <point x="120" y="800" type="line"/>
      <point x="160" y="760" type="line"/>
      <point x="160" y="720" type="line"/>
      <point x="120" y="560" type="line"/>
    </contour>
  </outline>
</glyph>
<glyph name="parenleft" format="1">
  <advance width="440"/>
  <unicode hex="0028"/>
  <outline>
    <contour>
      <point x="400" y="-160" type="line"/>
      <point x="320" y="-120" type="line"/>
      <point x="200" y="0" type="line"/>
      <point x="120" y="120" type="line"/>
      <point x="80" y="320" type="line"/>
      <point x="120" y="520" type="line"/>
      <point x="200" y="640" type="line"/>
      <point x="320" y="760" type="line"/>
      <point x="400" y="800" type="line"/>
      <point x="440" y="760" type="line"/>
      <point x="360" y="720" type="line"/>
      <point x="280" y="600" type="line"/>
      <point x="240" y="480" type="line"/>
      <point x="240" y="160" type="line"/>
      <point x="280" y="40" type="line"/>
      <point x="360" y="-80" type="line"/>
      <point x="440" y="-120" type="line"/>
    </contour>
  </outline>
</glyph>
<glyph name="parenright" format="1">
  <advance width="440"/>
  <unicode hex="0029"/>
  <outline>
    <contour>
      <point x="0" y="-120" type="line"/>
      <point x="80" y="-80" type="line"/>
      <point x="160" y="40" type="line"/>
      <point x="200" y="160" type="line"/>
      <point x="200" y="480" type="line"/>
      <point x="160" y="600" type="line"/>
      <point x="80" y="720" type="line"/>
      <point x="0" y="760" type="line"/>
      <point x="40" y="800" type="line"/>
      <point x="120" y="760" type="line"/>
      <point x="240" y="640" type="line"/>
      <point x="320" y="520" type="line"/>
      <point x="360" y="320" type="line"/>
      <point x="320" y="120" type="line"/>
      <point x="240" y="0" type="line"/>
      <point x="120" y="-120" type="line"/>
      <point x="40" y="-160" type="line"/>
    </contour>
  </outline>
</glyph>
<glyph name="asterisk" format="1">
  <advance width="440"/>
  <unicode hex="002A"/>
  <outline>
    <contour>
      <point x="40" y="760" type="line"/>
      <point x="80" y="800" type="line"/>
      <point x="200" y="760" type="line"/>
      <point x="160" y="880" type="line"/>
      <point x="200" y="920" type="line"/>
      <point x="240" y="920" type="line"/>
      <point x="280" y="880" type="line"/>
      <point x="240" y="760" type="line"/>
      <point x="360" y="800" type="line"/>
      <point x="400" y="760" type="line"/>
      <point x="400" y="720" type="line"/>
      <point x="360" y="680" type="line"/>
      <point x="240" y="720" type="line"/>
      <point x="280" y="600" type="line"/>
      <point x="240" y="560" type="line"/>
      <point x="200" y="560" type="line"/>
      <point x="160" y="600" type="line"/>
      <point x="200" y="720" type="line"/>
      <point x="80" y="680" type="line"/>
      <point x="40" y="720" type="line"/>
    </contour>
  </outline>
</glyph>
<glyph name="plus" format="1">
  <advance width="600"/>
  <unicode hex="002B"/>
  <outline>
    <contour>
      <point x="0" y="360" type="line"/>
      <point x="240" y="360" type="line"/>
      <point x="240" y="600" type="line"/>
      <point x="320" y="600" type="line"/>
      <point x="320" y="360" type="line"/>
      <point x="560" y="360" type="line"/>
      <point x="560" y="280" type="line"/>
      <point x="320" y="280" type="line"/>
      <point x="320" y="40" type="line"/>
      <point x="240" y="40" type="line"/>
      <point x="240" y="280" type="line"/>
      <point x="0" y="280" type="line"/>
    </contour>
  </outline>
</glyph>
<glyph name="hyphen" format="1">
  <advance width="320"/>
  <unicode hex="002D"/>
  <outline>
    <contour>
      <point x="40" y="320" type="line"/>
      <point x="280" y="320" type="line"/>
      <point x="280" y="240" type="line"/>
      <point x="40" y="240" type="line"/>
    </contour>
  </outline>
</glyph>
<glyph name="period" format="1">
  <advance width="200"/>
  <unicode hex="002E"/>
  <outline>
    <contour>
      <point x="80" y="0" type="line"/>
      <point x="0" y="40" type="line"/>
      <point x="0" y="80" type="line"/>
      <point x="40" y="160" type="line"/>
      <point x="80" y="160" type="line"/>
      <point x="160" y="120" type="line"/>
      <point x="160" y="80" type="line"/>
      <point x="120" y="0" type="line"/>
    </contour>
  </outline>
</glyph>
<glyph name="slash" format="1">
  <advance width="320"/>
  <unicode hex="002F"/>
  <outline>
    <contour>
      <point x="200" y="760" type="line"/>
      <point x="280" y="760" type="line"/>
      <point x="80" y="-80" type="line"/>
      <point x="0" y="-80" type="line"/>
    </contour>
  </outline>
</glyph>
<glyph name="zero" format="1">
  <advance width="720"/>
  <unicode hex="0030"/>
  <outline>
    <contour>
      <point x="520" y="560" type="line"/>
      <point x="440" y="720" type="line"/>
      <point x="360" y="760" type="line"/>
      <point x="280" y="720" type="line"/>
      <point x="200" y="560" type="line"/>
      <point x="200" y="240" type="line"/>
      <point x="280" y="80" type="line"/>
      <point x="360" y="40" type="line"/>
      <point x="440" y="80" type="line"/>
      <point x="520" y="240" type="line"/>
    </contour>
    <contour>
      <point x="560" y="80" type="line"/>
      <point x="400" y="0" type="line"/>
      <point x="320" y="0" type="line"/>
      <point x="160" y="80" type="line"/>
      <point x="80" y="200" type="line"/>
      <point x="40" y="400" type="line"/>
      <point x="80" y="600" type="line"/>
      <point x="160" y="720" type="line"/>
      <point x="320" y="800" type="line"/>
      <point x="400" y="800" type="line"/>
      <point x="560" y="720" type="line"/>
      <point x="640" y="600" type="line"/>
      <point x="680" y="400" type="line"/>
      <point x="640" y="200" type="line"/>
    </contour>
  </outline>
</glyph>
<glyph name="one" format="1">
  <advance width="360"/>
  <unicode hex="0031"/>
  <outline>
    <contour>
      <point x="160" y="760" type="line"/>
      <point x="240" y="800" type="line"/>
      <point x="240" y="80" type="line"/>
      <point x="320" y="0" type="line"/>
      <point x="40" y="0" type="line"/>
      <point x="120" y="80" type="line"/>
      <point x="120" y="600" type="line"/>
      <point x="0" y="600" type="line"/>
      <point x="0" y="640" type="line"/>
      <point x="80" y="680" type="line"/>
    </contour>
  </outline>
</glyph>
<glyph name="two" format="1">
  <advance width="640"/>
  <unicode hex="0032"/>
  <outline>
    <contour>
      <point x="200" y="640" type="line"/>
      <point x="200" y="480" type="line"/>
      <point x="160" y="480" type="line"/>
      <point x="80" y="600" type="line"/>
      <point x="120" y="720" type="line"/>
      <point x="280" y="800" type="line"/>
      <point x="400" y="800" type="line"/>
      <point x="520" y="760" type="line"/>
      <point x="600" y="640" type="line"/>
      <point x="600" y="560" type="line"/>
      <point x="560" y="440" type="line"/>
      <point x="480" y="360" type="line"/>
      <point x="160" y="80" type="line"/>
      <point x="440" y="40" type="line"/>
      <point x="560" y="240" type="line"/>
      <point x="600" y="240" type="line"/>
      <point x="560" y="-40" type="line"/>
      <point x="480" y="0" type="line"/>
      <point x="40" y="0" type="line"/>
      <point x="40" y="40" type="line"/>
      <point x="160" y="160" type="line"/>
      <point x="440" y="480" type="line"/>
      <point x="480" y="560" type="line"/>
      <point x="480" y="600" type="line"/>
      <point x="440" y="680" type="line"/>
      <point x="360" y="720" type="line"/>
      <point x="280" y="720" type="line"/>
    </contour>
  </outline>
</glyph>
<glyph name="three" format="1">
  <advance width="640"/>
  <unicode hex="0033"/>
  <outline>
    <contour>
      <point x="440" y="440" type="line"/>
      <point x="520" y="400" type="line"/>
      <point x="600" y="320" type="line"/>
      <point x="600" y="200" type="line"/>
      <point x="520" y="80" type="line"/>
      <point x="360" y="0" type="line"/>
      <point x="280" y="0" type="line"/>
      <point x="120" y="40" type="line"/>
      <point x="40" y="120" type="line"/>
      <point x="40" y="200" type="line"/>
      <point x="120" y="280" type="line"/>
      <point x="160" y="280" type="line"/>
      <point x="160" y="160" type="line"/>
      <point x="200" y="80" type="line"/>
      <point x="320" y="40" type="line"/>
      <point x="400" y="80" type="line"/>
      <point x="480" y="240" type="line"/>
      <point x="480" y="320" type="line"/>
      <point x="440" y="360" type="line"/>
      <point x="320" y="400" type="line"/>
      <point x="200" y="360" type="line"/>
      <point x="240" y="480" type="line"/>
      <point x="320" y="440" type="line"/>
      <point x="400" y="480" type="line"/>
      <point x="440" y="600" type="line"/>
      <point x="400" y="680" type="line"/>
      <point x="320" y="720" type="line"/>
      <point x="240" y="720" type="line"/>
      <point x="160" y="680" type="line"/>
      <point x="120" y="560" type="line"/>
      <point x="80" y="560" type="line"/>
      <point x="80" y="640" type="line"/>
      <point x="120" y="720" type="line"/>
      <point x="160" y="760" type="line"/>
      <point x="240" y="800" type="line"/>
      <point x="360" y="800" type="line"/>
      <point x="480" y="760" type="line"/>
      <point x="560" y="640" type="line"/>
      <point x="520" y="520" type="line"/>
    </contour>
  </outline>
</glyph>
<glyph name="four" format="1">
  <advance width="600"/>
  <unicode hex="0034"/>
  <outline>
    <contour>
      <point x="360" y="240" type="line"/>
      <point x="360" y="720" type="line"/>
      <point x="120" y="280" type="line"/>
    </contour>
    <contour>
      <point x="320" y="760" type="line"/>
      <point x="480" y="800" type="line"/>
      <point x="480" y="240" type="line"/>
      <point x="560" y="240" type="line"/>
      <point x="560" y="200" type="line"/>
      <point x="480" y="200" type="line"/>
      <point x="480" y="80" type="line"/>
      <point x="560" y="0" type="line"/>
      <point x="280" y="0" type="line"/>
      <point x="360" y="80" type="line"/>
      <point x="360" y="200" type="line"/>
      <point x="40" y="200" type="line"/>
      <point x="0" y="280" type="line"/>
    </contour>
  </outline>
</glyph>
<glyph name="five" format="1">
  <advance width="640"/>
  <unicode hex="0035"/>
  <outline>
    <contour>
      <point x="520" y="680" type="line"/>
      <point x="200" y="680" type="line"/>
      <point x="160" y="480" type="line"/>
      <point x="240" y="520" type="line"/>
      <point x="400" y="520" type="line"/>
      <point x="560" y="440" type="line"/>
      <point x="600" y="320" type="line"/>
      <point x="600" y="200" type="line"/>
      <point x="520" y="80" type="line"/>
      <point x="360" y="0" type="line"/>
      <point x="280" y="0" type="line"/>
      <point x="120" y="40" type="line"/>
      <point x="40" y="120" type="line"/>
      <point x="40" y="200" type="line"/>
      <point x="120" y="280" type="line"/>
      <point x="160" y="280" type="line"/>
      <point x="160" y="160" type="line"/>
      <point x="200" y="80" type="line"/>
      <point x="320" y="40" type="line"/>
      <point x="400" y="80" type="line"/>
      <point x="480" y="240" type="line"/>
      <point x="480" y="360" type="line"/>
      <point x="360" y="480" type="line"/>
      <point x="240" y="480" type="line"/>
      <point x="120" y="400" type="line"/>
      <point x="80" y="400" type="line"/>
      <point x="160" y="800" type="line"/>
      <point x="560" y="800" type="line"/>
    </contour>
  </outline>
</glyph>
<glyph name="six" format="1">
  <advance width="640"/>
  <unicode hex="0036"/>
  <outline>
    <contour>
      <point x="160" y="400" type="line"/>
      <point x="240" y="480" type="line"/>
      <point x="360" y="520" type="line"/>
      <point x="520" y="440" type="line"/>
      <point x="600" y="280" type="line"/>
      <point x="520" y="80" type="line"/>
      <point x="360" y="0" type="line"/>
      <point x="240" y="0" type="line"/>
      <point x="120" y="80" type="line"/>
      <point x="40" y="200" type="line"/>
      <point x="40" y="440" type="line"/>
      <point x="120" y="640" type="line"/>
      <point x="240" y="760" type="line"/>
      <point x="440" y="800" type="line"/>
      <point x="560" y="760" type="line"/>
      <point x="560" y="680" type="line"/>
      <point x="480" y="560" type="line"/>
      <point x="440" y="560" type="line"/>
      <point x="440" y="760" type="line"/>
      <point x="280" y="720" type="line"/>
      <point x="200" y="600" type="line"/>
    </contour>
    <contour>
      <point x="200" y="360" type="line"/>
      <point x="160" y="280" type="line"/>
      <point x="160" y="240" type="line"/>
      <point x="200" y="160" type="line"/>
      <point x="280" y="80" type="line"/>
      <point x="360" y="80" type="line"/>
      <point x="440" y="160" type="line"/>
      <point x="480" y="240" type="line"/>
      <point x="480" y="280" type="line"/>
      <point x="440" y="360" type="line"/>
      <point x="360" y="440" type="line"/>
      <point x="280" y="440" type="line"/>
    </contour>
  </outline>
</glyph>
<glyph name="seven" format="1">
  <advance width="560"/>
  <unicode hex="0037"/>
  <outline>
    <contour>
      <point x="320" y="320" type="line"/>
      <point x="280" y="0" type="line"/>
      <point x="120" y="0" type="line"/>
      <point x="200" y="280" type="line"/>
      <point x="280" y="440" type="line"/>
      <point x="400" y="640" type="line"/>
      <point x="480" y="760" type="line"/>
      <point x="240" y="760" type="line"/>
      <point x="160" y="720" type="line"/>
      <point x="160" y="560" type="line"/>
      <point x="120" y="560" type="line"/>
      <point x="40" y="680" type="line"/>
      <point x="40" y="800" type="line"/>
      <point x="560" y="800" type="line"/>
      <point x="560" y="760" type="line"/>
      <point x="480" y="640" type="line"/>
      <point x="360" y="440" type="line"/>
    </contour>
  </outline>
</glyph>
<glyph name="nine" format="1">
  <advance width="640"/>
  <unicode hex="0039"/>
  <outline>
    <contour>
      <point x="480" y="400" type="line"/>
      <point x="400" y="320" type="line"/>
      <point x="280" y="280" type="line"/>
      <point x="120" y="360" type="line"/>
      <point x="40" y="520" type="line"/>
      <point x="120" y="720" type="line"/>
      <point x="280" y="800" type="line"/>
      <point x="400" y="800" type="line"/>
      <point x="520" y="720" type="line"/>
      <point x="600" y="600" type="line"/>
      <point x="600" y="360" type="line"/>
      <point x="520" y="160" type="line"/>
      <point x="400" y="40" type="line"/>
      <point x="200" y="0" type="line"/>
      <point x="80" y="40" type="line"/>
      <point x="80" y="120" type="line"/>
      <point x="160" y="240" type="line"/>
      <point x="200" y="240" type="line"/>
      <point x="200" y="40" type="line"/>
      <point x="360" y="80" type="line"/>
      <point x="440" y="200" type="line"/>
    </contour>
    <contour>
      <point x="440" y="440" type="line"/>
      <point x="480" y="520" type="line"/>
      <point x="480" y="560" type="line"/>
      <point x="440" y="640" type="line"/>
      <point x="360" y="720" type="line"/>
      <point x="280" y="720" type="line"/>
      <point x="200" y="640" type="line"/>
      <point x="160" y="560" type="line"/>
      <point x="160" y="520" type="line"/>
      <point x="200" y="440" type="line"/>
      <point x="280" y="360" type="line"/>
      <point x="360" y="360" type="line"/>
    </contour>
  </outline>
</glyph>
<glyph name="colon" format="1">
  <advance width="200"/>
  <unicode hex="003A"/>
  <outline>
    <contour>
      <point x="80" y="360" type="line"/>
      <point x="0" y="400" type="line"/>
      <point x="0" y="440" type="line"/>
      <point x="40" y="520" type="line"/>
      <point x="80" y="520" type="line"/>
      <point x="160" y="480" type="line"/>
      <point x="160" y="440" type="line"/>
      <point x="120" y="360" type="line"/>
    </contour>
    <contour>
      <point x="80" y="0" type="line"/>
      <point x="0" y="40" type="line"/>
      <point x="0" y="80" type="line"/>
      <point x="40" y="160" type="line"/>
      <point x="80" y="160" type="line"/>
      <point x="160" y="120" type="line"/>
      <point x="160" y="80" type="line"/>
      <point x="120" y="0" type="line"/>
    </contour>
  </outline>
</glyph>
<glyph name="semicolon" format="1">
  <advance width="240"/>
  <unicode hex="003B"/>
  <outline>
    <contour>
      <point x="120" y="360" type="line"/>
      <point x="40" y="400" type="line"/>
      <point x="40" y="440" type="line"/>
      <point x="80" y="520" type="line"/>
      <point x="120" y="520" type="line"/>
      <point x="200" y="480" type="line"/>
      <point x="200" y="440" type="line"/>
      <point x="160" y="360" type="line"/>
    </contour>
    <contour>
      <point x="120" y="-120" type="line"/>
      <point x="0" y="-120" type="line"/>
      <point x="0" y="-80" type="line"/>
      <point x="80" y="-80" type="line"/>
      <point x="120" y="0" type="line"/>
      <point x="40" y="40" type="line"/>
      <point x="40" y="80" type="line"/>
      <point x="80" y="160" type="line"/>
      <point x="120" y="160" type="line"/>
      <point x="200" y="120" type="line"/>
      <point x="200" y="40" type="line"/>
    </contour>
  </outline>
</glyph>
<glyph name="less" format="1">
  <advance width="480"/>
  <unicode hex="003C"/>
  <outline>
    <contour>
      <point x="80" y="280" type="line"/>
      <point x="80" y="359" type="line"/>
      <point x="400" y="600" type="line"/>
      <point x="440" y="520" type="line"/>
      <point x="120" y="320" type="line"/>
      <point x="440" y="120" type="line"/>
      <point x="400" y="40" type="line"/>
    </contour>
  </outline>
</glyph>
<glyph name="equal" format="1">
  <advance width="560"/>
  <unicode hex="003D"/>
  <outline>
    <contour>
      <point x="520" y="360" type="line"/>
      <point x="40" y="360" type="line"/>
      <point x="40" y="440" type="line"/>
      <point x="520" y="440" type="line"/>
    </contour>
    <contour>
      <point x="520" y="200" type="line"/>
      <point x="40" y="200" type="line"/>
      <point x="40" y="280" type="line"/>
      <point x="520" y="280" type="line"/>
    </contour>
  </outline>
</glyph>
<glyph name="greater" format="1">
  <advance width="480"/>
  <unicode hex="003E"/>
  <outline>
    <contour>
      <point x="80" y="40" type="line"/>
      <point x="40" y="120" type="line"/>
      <point x="360" y="320" type="line"/>
      <point x="40" y="520" type="line"/>
      <point x="80" y="600" type="line"/>
      <point x="400" y="359" type="line"/>
      <point x="400" y="280" type="line"/>
    </contour>
  </outline>
</glyph>
<glyph name="question" format="1">
  <advance width="520"/>
  <unicode hex="003F"/>
  <outline>
    <contour>
      <point x="80" y="520" type="line"/>
      <point x="0" y="600" type="line"/>
      <point x="0" y="640" type="line"/>
      <point x="80" y="760" type="line"/>
      <point x="200" y="800" type="line"/>
      <point x="280" y="800" type="line"/>
      <point x="400" y="760" type="line"/>
      <point x="480" y="640" type="line"/>
      <point x="480" y="560" type="line"/>
      <point x="400" y="440" type="line"/>
      <point x="240" y="360" type="line"/>
      <point x="200" y="320" type="line"/>
      <point x="240" y="240" type="line"/>
      <point x="200" y="240" type="line"/>
      <point x="120" y="320" type="line"/>
      <point x="120" y="360" type="line"/>
      <point x="320" y="480" type="line"/>
      <point x="360" y="560" type="line"/>
      <point x="360" y="640" type="line"/>
      <point x="320" y="720" type="line"/>
      <point x="240" y="760" type="line"/>
      <point x="160" y="720" type="line"/>
      <point x="120" y="640" type="line"/>
      <point x="120" y="520" type="line"/>
    </contour>
    <component base="period" xOffset="160"/>
  </outline>
</glyph>
<glyph name="at" format="1">
  <advance width="840"/>
  <unicode hex="0040"/>
  <outline>
    <contour>
      <point x="520" y="440" type="line"/>
      <point x="400" y="440" type="line"/>
      <point x="360" y="400" type="line"/>
      <point x="320" y="240" type="line"/>
      <point x="360" y="120" type="line"/>
      <point x="440" y="80" type="line"/>
      <point x="480" y="160" type="line"/>
    </contour>
    <contour>
      <point x="0" y="280" type="line"/>
      <point x="40" y="480" type="line"/>
      <point x="120" y="600" type="line"/>
      <point x="280" y="680" type="line"/>
      <point x="560" y="680" type="line"/>
      <point x="720" y="600" type="line"/>
      <point x="800" y="480" type="line"/>
      <point x="840" y="280" type="line"/>
      <point x="760" y="120" type="line"/>
      <point x="680" y="40" type="line"/>
      <point x="600" y="0" type="line"/>
      <point x="520" y="120" type="line"/>
      <point x="480" y="40" type="line"/>
      <point x="320" y="0" type="line"/>
      <point x="200" y="160" type="line"/>
      <point x="200" y="320" type="line"/>
      <point x="240" y="440" type="line"/>
      <point x="360" y="520" type="line"/>
      <point x="520" y="480" type="line"/>
      <point x="560" y="520" type="line"/>
      <point x="640" y="520" type="line"/>
      <point x="600" y="200" type="line"/>
      <point x="640" y="80" type="line"/>
      <point x="720" y="200" type="line"/>
      <point x="720" y="440" type="line"/>
      <point x="640" y="560" type="line"/>
      <point x="480" y="640" type="line"/>
      <point x="360" y="640" type="line"/>
      <point x="200" y="560" type="line"/>
      <point x="120" y="440" type="line"/>
      <point x="120" y="120" type="line"/>
      <point x="200" y="0" type="line"/>
      <point x="320" y="-80" type="line"/>
      <point x="440" y="-120" type="line"/>
      <point x="400" y="-160" type="line"/>
      <point x="240" y="-120" type="line"/>
      <point x="120" y="-40" type="line"/>
      <point x="40" y="80" type="line"/>
    </contour>
  </outline>
</glyph>
<glyph name="A" format="1">
  <advance width="760"/>
  <unicode hex="0041"/>
  <outline>
    <contour>
      <point x="240" y="0" type="line"/>
      <point x="0" y="0" type="line"/>
      <point x="80" y="80" type="line"/>
      <point x="320" y="720" type="line"/>
      <point x="320" y="760" type="line"/>
      <point x="400" y="840" type="line"/>
      <point x="680" y="80" type="line"/>
      <point x="760" y="0" type="line"/>
      <point x="520" y="0" type="line"/>
      <point x="560" y="80" type="line"/>
      <point x="503" y="240" type="line"/>
      <point x="217" y="240" type="line"/>
      <point x="160" y="80" type="line"/>
    </contour>
    <contour>
      <point x="360" y="640" type="line"/>
      <point x="231" y="280" type="line"/>
      <point x="488" y="280" type="line"/>
    </contour>
  </outline>
</glyph>
<glyph name="C" format="1">
  <advance width="760"/>
  <unicode hex="0043"/>
  <outline>
    <contour>
      <point x="200" y="240" type="line"/>
      <point x="280" y="120" type="line"/>
      <point x="440" y="40" type="line"/>
      <point x="560" y="80" type="line"/>
      <point x="640" y="160" type="line"/>
      <point x="680" y="240" type="line"/>
      <point x="720" y="200" type="line"/>
      <point x="640" y="80" type="line"/>
      <point x="520" y="0" type="line"/>
      <point x="320" y="0" type="line"/>
      <point x="160" y="80" type="line"/>
      <point x="80" y="200" type="line"/>
      <point x="40" y="400" type="line"/>
      <point x="80" y="600" type="line"/>
      <point x="160" y="720" type="line"/>
      <point x="320" y="800" type="line"/>
      <point x="520" y="800" type="line"/>
      <point x="680" y="720" type="line"/>
      <point x="720" y="640" type="line"/>
      <point x="640" y="560" type="line"/>
      <point x="560" y="560" type="line"/>
      <point x="560" y="680" type="line"/>
      <point x="480" y="760" type="line"/>
      <point x="400" y="760" type="line"/>
      <point x="280" y="680" type="line"/>
      <point x="200" y="560" type="line"/>
    </contour>
  </outline>
</glyph>
<glyph name="D" format="1">
  <advance width="800"/>
  <unicode hex="0044"/>
  <outline>
    <contour>
      <point x="40" y="800" type="line"/>
      <point x="400" y="800" type="line"/>
      <point x="600" y="720" type="line"/>
      <point x="720" y="600" type="line"/>
      <point x="760" y="400" type="line"/>
      <point x="720" y="200" type="line"/>
      <point x="640" y="80" type="line"/>
      <point x="480" y="0" type="line"/>
      <point x="40" y="0" type="line"/>
      <point x="120" y="80" type="line"/>
      <point x="120" y="720" type="line"/>
    </contour>
    <contour>
      <point x="600" y="560" type="line"/>
      <point x="560" y="640" type="line"/>
      <point x="480" y="720" type="line"/>
      <point x="400" y="760" type="line"/>
      <point x="280" y="760" type="line"/>
      <point x="240" y="720" type="line"/>
      <point x="240" y="80" type="line"/>
      <point x="280" y="40" type="line"/>
      <point x="440" y="40" type="line"/>
      <point x="520" y="80" type="line"/>
      <point x="600" y="200" type="line"/>
    </contour>
  </outline>
</glyph>
<glyph name="E" format="1">
  <advance width="720"/>
  <unicode hex="0045"/>
  <outline>
    <contour>
      <point x="680" y="240" type="line"/>
      <point x="640" y="-40" type="line"/>
      <point x="560" y="0" type="line"/>
      <point x="40" y="0" type="line"/>
      <point x="120" y="80" type="line"/>
      <point x="120" y="720" type="line"/>
      <point x="40" y="800" type="line"/>
      <point x="440" y="800" type="line"/>
      <point x="600" y="840" type="line"/>
      <point x="640" y="600" type="line"/>
      <point x="600" y="600" type="line"/>
      <point x="480" y="760" type="line"/>
      <point x="280" y="760" type="line"/>
      <point x="240" y="720" type="line"/>
      <point x="240" y="480" type="line"/>
      <point x="280" y="440" type="line"/>
      <point x="440" y="440" type="line"/>
      <point x="520" y="520" type="line"/>
      <point x="520" y="320" type="line"/>
      <point x="440" y="400" type="line"/>
      <point x="280" y="400" type="line"/>
      <point x="240" y="360" type="line"/>
      <point x="240" y="80" type="line"/>
      <point x="280" y="40" type="line"/>
      <point x="520" y="40" type="line"/>
      <point x="640" y="240" type="line"/>
    </contour>
  </outline>
</glyph>
<glyph name="F" format="1">
  <advance width="680"/>
  <unicode hex="0046"/>
  <outline>
    <contour>
      <point x="40" y="0" type="line"/>
      <point x="120" y="80" type="line"/>
      <point x="120" y="720" type="line"/>
      <point x="40" y="800" type="line"/>
      <point x="440" y="800" type="line"/>
      <point x="600" y="840" type="line"/>
      <point x="640" y="600" type="line"/>
      <point x="600" y="600" type="line"/>
      <point x="480" y="760" type="line"/>
      <point x="280" y="760" type="line"/>
      <point x="240" y="720" type="line"/>
      <point x="240" y="480" type="line"/>
      <point x="280" y="440" type="line"/>
      <point x="440" y="440" type="line"/>
      <point x="520" y="520" type="line"/>
      <point x="520" y="320" type="line"/>
      <point x="440" y="400" type="line"/>
      <point x="280" y="400" type="line"/>
      <point x="240" y="360" type="line"/>
      <point x="240" y="80" type="line"/>
      <point x="320" y="0" type="line"/>
    </contour>
  </outline>
</glyph>
<glyph name="H" format="1">
  <advance width="920"/>
  <unicode hex="0048"/>
  <outline>
    <contour>
      <point x="320" y="800" type="line"/>
      <point x="240" y="720" type="line"/>
      <point x="240" y="480" type="line"/>
      <point x="280" y="440" type="line"/>
      <point x="640" y="440" type="line"/>
      <point x="680" y="480" type="line"/>
      <point x="680" y="720" type="line"/>
      <point x="600" y="800" type="line"/>
      <point x="880" y="800" type="line"/>
      <point x="800" y="720" type="line"/>
      <point x="800" y="80" type="line"/>
      <point x="880" y="0" type="line"/>
      <point x="600" y="0" type="line"/>
      <point x="680" y="80" type="line"/>
      <point x="680" y="360" type="line"/>
      <point x="640" y="400" type="line"/>
      <point x="280" y="400" type="line"/>
      <point x="240" y="360" type="line"/>
      <point x="240" y="80" type="line"/>
      <point x="320" y="0" type="line"/>
      <point x="40" y="0" type="line"/>
      <point x="120" y="80" type="line"/>
      <point x="120" y="720" type="line"/>
      <point x="40" y="800" type="line"/>
    </contour>
  </outline>
</glyph>
<glyph name="I" format="1">
  <advance width="360"/>
  <unicode hex="0049"/>
  <outline>
    <contour>
      <point x="240" y="80" type="line"/>
      <point x="320" y="0" type="line"/>
      <point x="40" y="0" type="line"/>
      <point x="120" y="80" type="line"/>
      <point x="120" y="720" type="line"/>
      <point x="40" y="800" type="line"/>
      <point x="320" y="800" type="line"/>
      <point x="240" y="720" type="line"/>
    </contour>
  </outline>
</glyph>
<glyph name="J" format="1">
  <advance width="440"/>
  <unicode hex="004A"/>
  <outline>
    <contour>
      <point x="40" y="-80" type="line"/>
      <point x="160" y="40" type="line"/>
      <point x="200" y="120" type="line"/>
      <point x="200" y="720" type="line"/>
      <point x="120" y="800" type="line"/>
      <point x="400" y="800" type="line"/>
      <point x="320" y="720" type="line"/>
      <point x="320" y="120" type="line"/>
      <point x="240" y="0" type="line"/>
      <point x="80" y="-120" type="line"/>
    </contour>
  </outline>
</glyph>
<glyph name="K" format="1">
  <advance width="700"/>
  <unicode hex="004B"/>
  <outline>
    <contour>
      <point x="720" y="0" type="line"/>
      <point x="680" y="-40" type="line"/>
      <point x="520" y="80" type="line"/>
      <point x="360" y="320" type="line"/>
      <point x="280" y="360" type="line"/>
      <point x="240" y="320" type="line"/>
      <point x="240" y="80" type="line"/>
      <point x="320" y="0" type="line"/>
      <point x="40" y="0" type="line"/>
      <point x="120" y="80" type="line"/>
      <point x="120" y="720" type="line"/>
      <point x="40" y="800" type="line"/>
      <point x="320" y="800" type="line"/>
      <point x="240" y="720" type="line"/>
      <point x="240" y="400" type="line"/>
      <point x="520" y="720" type="line"/>
      <point x="440" y="800" type="line"/>
      <point x="680" y="800" type="line"/>
      <point x="600" y="720" type="line"/>
      <point x="320" y="400" type="line"/>
      <point x="480" y="360" type="line"/>
    </contour>
  </outline>
</glyph>
<glyph name="L" format="1">
  <advance width="680"/>
  <unicode hex="004C"/>
  <outline>
    <contour>
      <point x="520" y="0" type="line"/>
      <point x="40" y="0" type="line"/>
      <point x="120" y="80" type="line"/>
      <point x="120" y="720" type="line"/>
      <point x="40" y="800" type="line"/>
      <point x="320" y="800" type="line"/>
      <point x="240" y="720" type="line"/>
      <point x="240" y="80" type="line"/>
      <point x="280" y="40" type="line"/>
      <point x="480" y="40" type="line"/>
      <point x="600" y="240" type="line"/>
      <point x="640" y="240" type="line"/>
      <point x="600" y="-40" type="line"/>
    </contour>
  </outline>
</glyph>
<glyph name="M" format="1">
  <advance width="1000"/>
  <unicode hex="004D"/>
  <outline>
    <contour>
      <point x="520" y="200" type="line"/>
      <point x="760" y="800" type="line"/>
      <point x="960" y="800" type="line"/>
      <point x="880" y="720" type="line"/>
      <point x="880" y="80" type="line"/>
      <point x="960" y="0" type="line"/>
      <point x="680" y="0" type="line"/>
      <point x="760" y="80" type="line"/>
      <point x="760" y="600" type="line"/>
      <point x="520" y="0" type="line"/>
      <point x="480" y="-40" type="line"/>
      <point x="200" y="640" type="line"/>
      <point x="200" y="80" type="line"/>
      <point x="280" y="0" type="line"/>
      <point x="40" y="0" type="line"/>
      <point x="120" y="80" type="line"/>
      <point x="120" y="720" type="line"/>
      <point x="40" y="800" type="line"/>
      <point x="280" y="800" type="line"/>
    </contour>
  </outline>
</glyph>
<glyph name="N" format="1">
  <advance width="840"/>
  <unicode hex="004E"/>
  <outline>
    <contour>
      <point x="720" y="40" type="line"/>
      <point x="640" y="-40" type="line"/>
      <point x="200" y="680" type="line"/>
      <point x="200" y="80" type="line"/>
      <point x="280" y="0" type="line"/>
      <point x="40" y="0" type="line"/>
      <point x="120" y="80" type="line"/>
      <point x="120" y="720" type="line"/>
      <point x="40" y="800" type="line"/>
      <point x="280" y="800" type="line"/>
      <point x="640" y="200" type="line"/>
      <point x="640" y="720" type="line"/>
      <point x="560" y="800" type="line"/>
      <point x="800" y="800" type="line"/>
      <point x="720" y="720" type="line"/>
    </contour>
  </outline>
</glyph>
<glyph name="O" format="1">
  <advance width="880"/>
  <unicode hex="004F"/>
  <outline>
    <contour>
      <point x="720" y="80" type="line"/>
      <point x="560" y="0" type="line"/>
      <point x="320" y="0" type="line"/>
      <point x="160" y="80" type="line"/>
      <point x="80" y="200" type="line"/>
      <point x="40" y="400" type="line"/>
      <point x="80" y="600" type="line"/>
      <point x="160" y="720" type="line"/>
      <point x="320" y="800" type="line"/>
      <point x="560" y="800" type="line"/>
      <point x="720" y="720" type="line"/>
      <point x="800" y="600" type="line"/>
      <point x="840" y="400" type="line"/>
      <point x="800" y="200" type="line"/>
    </contour>
    <contour>
      <point x="680" y="560" type="line"/>
      <point x="600" y="680" type="line"/>
      <point x="480" y="760" type="line"/>
      <point x="400" y="760" type="line"/>
      <point x="280" y="680" type="line"/>
      <point x="200" y="560" type="line"/>
      <point x="200" y="240" type="line"/>
      <point x="280" y="120" type="line"/>
      <point x="400" y="40" type="line"/>
      <point x="480" y="40" type="line"/>
      <point x="600" y="120" type="line"/>
      <point x="680" y="240" type="line"/>
    </contour>
  </outline>
</glyph>
<glyph name="P" format="1">
  <advance width="694"/>
  <unicode hex="0050"/>
  <outline>
    <contour>
      <point x="240" y="360" type="line"/>
      <point x="240" y="80" type="line"/>
      <point x="320" y="0" type="line"/>
      <point x="40" y="0" type="line"/>
      <point x="120" y="80" type="line"/>
      <point x="120" y="720" type="line"/>
      <point x="40" y="800" type="line"/>
      <point x="400" y="800" type="line"/>
      <point x="600" y="760" type="line"/>
      <point x="680" y="600" type="line"/>
      <point x="600" y="400" type="line"/>
      <point x="400" y="320" type="line"/>
    </contour>
    <contour>
      <point x="280" y="760" type="line"/>
      <point x="240" y="720" type="line"/>
      <point x="240" y="400" type="line"/>
      <point x="360" y="400" type="line"/>
      <point x="480" y="440" type="line"/>
      <point x="520" y="600" type="line"/>
      <point x="480" y="720" type="line"/>
      <point x="400" y="760" type="line"/>
    </contour>
  </outline>
</glyph>
<glyph name="Q" format="1">
  <advance width="880"/>
  <unicode hex="0051"/>
  <outline>
    <contour>
      <point x="560" y="0" type="line"/>
      <point x="680" y="-80" type="line"/>
      <point x="800" y="-120" type="line"/>
      <point x="920" y="-120" type="line"/>
      <point x="920" y="-160" type="line"/>
      <point x="760" y="-200" type="line"/>
      <point x="600" y="-160" type="line"/>
      <point x="520" y="-80" type="line"/>
      <point x="480" y="0" type="line"/>
      <point x="320" y="0" type="line"/>
      <point x="160" y="80" type="line"/>
      <point x="80" y="200" type="line"/>
      <point x="40" y="400" type="line"/>
      <point x="80" y="600" type="line"/>
      <point x="160" y="720" type="line"/>
      <point x="320" y="800" type="line"/>
      <point x="560" y="800" type="line"/>
      <point x="720" y="720" type="line"/>
      <point x="800" y="600" type="line"/>
      <point x="840" y="400" type="line"/>
      <point x="800" y="200" type="line"/>
      <point x="720" y="80" type="line"/>
    </contour>
    <contour>
      <point x="480" y="40" type="line"/>
      <point x="600" y="120" type="line"/>
      <point x="680" y="240" type="line"/>
      <point x="680" y="560" type="line"/>
      <point x="600" y="680" type="line"/>
      <point x="480" y="760" type="line"/>
      <point x="400" y="760" type="line"/>
      <point x="280" y="680" type="line"/>
      <point x="200" y="560" type="line"/>
      <point x="200" y="240" type="line"/>
      <point x="280" y="120" type="line"/>
      <point x="400" y="40" type="line"/>
    </contour>
  </outline>
</glyph>
<glyph name="S" format="1">
  <advance width="600"/>
  <unicode hex="0053"/>
  <outline>
    <contour>
      <point x="520" y="600" type="line"/>
      <point x="480" y="600" type="line"/>
      <point x="360" y="760" type="line"/>
      <point x="240" y="760" type="line"/>
      <point x="200" y="720" type="line"/>
      <point x="160" y="640" type="line"/>
      <point x="240" y="560" type="line"/>
      <point x="520" y="320" type="line"/>
      <point x="560" y="200" type="line"/>
      <point x="520" y="40" type="line"/>
      <point x="360" y="-40" type="line"/>
      <point x="160" y="0" type="line"/>
      <point x="80" y="-40" type="line"/>
      <point x="40" y="230" type="line"/>
      <point x="80" y="230" type="line"/>
      <point x="200" y="40" type="line"/>
      <point x="320" y="40" type="line"/>
      <point x="400" y="80" type="line"/>
      <point x="440" y="120" type="line"/>
      <point x="440" y="200" type="line"/>
      <point x="360" y="280" type="line"/>
      <point x="80" y="520" type="line"/>
      <point x="40" y="640" type="line"/>
      <point x="80" y="760" type="line"/>
      <point x="200" y="840" type="line"/>
      <point x="400" y="800" type="line"/>
      <point x="480" y="840" type="line"/>
    </contour>
  </outline>
</glyph>
<glyph name="T" format="1">
  <advance width="680"/>
  <unicode hex="0054"/>
  <outline>
    <contour>
      <point x="680" y="600" type="line"/>
      <point x="640" y="600" type="line"/>
      <point x="560" y="720" type="line"/>
      <point x="400" y="760" type="line"/>
      <point x="400" y="80" type="line"/>
      <point x="480" y="0" type="line"/>
      <point x="200" y="0" type="line"/>
      <point x="280" y="80" type="line"/>
      <point x="280" y="760" type="line"/>
      <point x="120" y="720" type="line"/>
      <point x="40" y="600" type="line"/>
      <point x="0" y="600" type="line"/>
      <point x="40" y="840" type="line"/>
      <point x="200" y="800" type="line"/>
      <point x="480" y="800" type="line"/>
      <point x="640" y="840" type="line"/>
    </contour>
  </outline>
</glyph>
<glyph name="U" format="1">
  <advance width="840"/>
  <unicode hex="0055"/>
  <outline>
    <contour>
      <point x="720" y="240" type="line"/>
      <point x="680" y="120" type="line"/>
      <point x="600" y="40" type="line"/>
      <point x="520" y="0" type="line"/>
      <point x="360" y="0" type="line"/>
      <point x="240" y="40" type="line"/>
      <point x="160" y="120" type="line"/>
      <point x="120" y="240" type="line"/>
      <point x="120" y="720" type="line"/>
      <point x="40" y="800" type="line"/>
      <point x="320" y="800" type="line"/>
      <point x="240" y="720" type="line"/>
      <point x="240" y="280" type="line"/>
      <point x="280" y="120" type="line"/>
      <point x="400" y="40" type="line"/>
      <point x="480" y="40" type="line"/>
      <point x="560" y="80" type="line"/>
      <point x="600" y="120" type="line"/>
      <point x="640" y="240" type="line"/>
      <point x="640" y="720" type="line"/>
      <point x="560" y="800" type="line"/>
      <point x="800" y="800" type="line"/>
      <point x="720" y="720" type="line"/>
    </contour>
  </outline>
</glyph>
<glyph name="V" format="1">
  <advance width="760"/>
  <unicode hex="0056"/>
  <outline>
    <contour>
      <point x="600" y="720" type="line"/>
      <point x="520" y="800" type="line"/>
      <point x="760" y="800" type="line"/>
      <point x="680" y="720" type="line"/>
      <point x="400" y="0" type="line"/>
      <point x="360" y="-40" type="line"/>
      <point x="80" y="720" type="line"/>
      <point x="0" y="800" type="line"/>
      <point x="280" y="800" type="line"/>
      <point x="200" y="720" type="line"/>
      <point x="400" y="200" type="line"/>
    </contour>
  </outline>
</glyph>
<glyph name="W" format="1">
  <advance width="1040"/>
  <unicode hex="0057"/>
  <outline>
    <contour>
      <point x="600" y="760" type="line"/>
      <point x="720" y="200" type="line"/>
      <point x="880" y="720" type="line"/>
      <point x="800" y="800" type="line"/>
      <point x="1040" y="800" type="line"/>
      <point x="960" y="720" type="line"/>
      <point x="720" y="0" type="line"/>
      <point x="680" y="-40" type="line"/>
      <point x="520" y="520" type="line"/>
      <point x="360" y="0" type="line"/>
      <point x="320" y="-40" type="line"/>
      <point x="80" y="720" type="line"/>
      <point x="0" y="800" type="line"/>
      <point x="280" y="800" type="line"/>
      <point x="200" y="720" type="line"/>
      <point x="360" y="200" type="line"/>
      <point x="480" y="720" type="line"/>
    </contour>
  </outline>
</glyph>
<glyph name="Y" format="1">
  <advance width="680"/>
  <unicode hex="0059"/>
  <outline>
    <contour>
      <point x="360" y="440" type="line"/>
      <point x="400" y="440" type="line"/>
      <point x="520" y="720" type="line"/>
      <point x="440" y="800" type="line"/>
      <point x="680" y="800" type="line"/>
      <point x="600" y="720" type="line"/>
      <point x="400" y="360" type="line"/>
      <point x="400" y="80" type="line"/>
      <point x="480" y="0" type="line"/>
      <point x="200" y="0" type="line"/>
      <point x="280" y="80" type="line"/>
      <point x="280" y="360" type="line"/>
      <point x="80" y="720" type="line"/>
      <point x="0" y="800" type="line"/>
      <point x="280" y="800" type="line"/>
      <point x="200" y="720" type="line"/>
    </contour>
  </outline>
</glyph>
<glyph name="Z" format="1">
  <advance width="760"/>
  <unicode hex="005A"/>
  <outline>
    <contour>
      <point x="160" y="80" type="line"/>
      <point x="520" y="40" type="line"/>
      <point x="640" y="240" type="line"/>
      <point x="680" y="240" type="line"/>
      <point x="640" y="-40" type="line"/>
      <point x="560" y="0" type="line"/>
      <point x="40" y="0" type="line"/>
      <point x="40" y="40" type="line"/>
      <point x="520" y="760" type="line"/>
      <point x="240" y="760" type="line"/>
      <point x="120" y="600" type="line"/>
      <point x="80" y="600" type="line"/>
      <point x="120" y="840" type="line"/>
      <point x="280" y="800" type="line"/>
      <point x="720" y="800" type="line"/>
    </contour>
  </outline>
</glyph>
<glyph name="bracketleft" format="1">
  <advance width="280"/>
  <unicode hex="005B"/>
  <outline>
    <contour>
      <point x="40" y="800" type="line"/>
      <point x="280" y="800" type="line"/>
      <point x="280" y="760" type="line"/>
      <point x="120" y="720" type="line"/>
      <point x="120" y="-80" type="line"/>
      <point x="280" y="-120" type="line"/>
      <point x="280" y="-160" type="line"/>
      <point x="40" y="-160" type="line"/>
    </contour>
  </outline>
</glyph>
<glyph name="backslash" format="1">
  <advance width="320"/>
  <unicode hex="005C"/>
  <outline>
    <contour>
      <point x="280" y="-80" type="line"/>
      <point x="200" y="-80" type="line"/>
      <point x="0" y="760" type="line"/>
      <point x="80" y="760" type="line"/>
    </contour>
  </outline>
</glyph>
<glyph name="bracketright" format="1">
  <advance width="280"/>
  <unicode hex="005D"/>
  <outline>
    <contour>
      <point x="240" y="-160" type="line"/>
      <point x="0" y="-160" type="line"/>
      <point x="0" y="-120" type="line"/>
      <point x="160" y="-80" type="line"/>
      <point x="160" y="720" type="line"/>
      <point x="0" y="760" type="line"/>
      <point x="0" y="800" type="line"/>
      <point x="240" y="800" type="line"/>
    </contour>
  </outline>
</glyph>
<glyph name="underscore" format="1">
  <advance width="800"/>
  <unicode hex="005F"/>
  <outline>
    <contour>
      <point x="80" y="-80" type="line"/>
      <point x="720" y="-80" type="line"/>
      <point x="720" y="-120" type="line"/>
      <point x="80" y="-120" type="line"/>
    </contour>
  </outline>
</glyph>
<glyph name="grave" format="1">
  <advance width="840"/>
  <unicode hex="0060"/>
  <outline>
    <contour>
      <point x="400" y="640" type="line"/>
      <point x="360" y="640" type="line"/>
      <point x="160" y="720" type="line"/>
      <point x="160" y="760" type="line"/>
      <point x="200" y="800" type="line"/>
      <point x="240" y="800" type="line"/>
    </contour>
  </outline>
</glyph>
<glyph name="a" format="1">
  <advance width="540"/>
  <unicode hex="0061"/>
  <outline>
    <contour>
      <point x="260" y="560" type="line"/>
      <point x="420" y="520" type="line"/>
      <point x="460" y="440" type="line"/>
      <point x="460" y="80" type="line"/>
      <point x="540" y="120" type="line"/>
      <point x="540" y="80" type="line"/>
      <point x="460" y="0" type="line"/>
      <point x="420" y="0" type="line"/>
      <point x="380" y="80" type="line"/>
      <point x="260" y="0" type="line"/>
      <point x="180" y="0" type="line"/>
      <point x="100" y="40" type="line"/>
      <point x="20" y="160" type="line"/>
      <point x="60" y="280" type="line"/>
      <point x="140" y="320" type="line"/>
      <point x="340" y="360" type="line"/>
      <point x="340" y="440" type="line"/>
      <point x="300" y="480" type="line"/>
      <point x="220" y="480" type="line"/>
      <point x="180" y="400" type="line"/>
      <point x="100" y="480" type="line"/>
    </contour>
    <contour>
      <point x="340" y="320" type="line"/>
      <point x="180" y="240" type="line"/>
      <point x="140" y="160" type="line"/>
      <point x="220" y="40" type="line"/>
      <point x="300" y="80" type="line"/>
      <point x="340" y="160" type="line"/>
    </contour>
  </outline>
</glyph>
<glyph name="b" format="1">
  <advance width="640"/>
  <unicode hex="0062"/>
  <outline>
    <contour>
      <point x="120" y="720" type="line"/>
      <point x="40" y="760" type="line"/>
      <point x="240" y="840" type="line"/>
      <point x="240" y="520" type="line"/>
      <point x="320" y="560" type="line"/>
      <point x="400" y="560" type="line"/>
      <point x="520" y="520" type="line"/>
      <point x="600" y="360" type="line"/>
      <point x="600" y="200" type="line"/>
      <point x="520" y="40" type="line"/>
      <point x="400" y="0" type="line"/>
      <point x="320" y="0" type="line"/>
      <point x="240" y="40" type="line"/>
      <point x="200" y="80" type="line"/>
      <point x="160" y="0" type="line"/>
      <point x="40" y="80" type="line"/>
      <point x="120" y="120" type="line"/>
    </contour>
    <contour>
      <point x="360" y="520" type="line"/>
      <point x="280" y="480" type="line"/>
      <point x="240" y="400" type="line"/>
      <point x="240" y="160" type="line"/>
      <point x="280" y="80" type="line"/>
      <point x="360" y="40" type="line"/>
      <point x="440" y="80" type="line"/>
      <point x="480" y="280" type="line"/>
      <point x="440" y="480" type="line"/>
    </contour>
  </outline>
</glyph>
<glyph name="e" format="1">
  <advance width="540"/>
  <unicode hex="0065"/>
  <outline>
    <contour>
      <point x="240" y="560" type="line"/>
      <point x="320" y="560" type="line"/>
      <point x="440" y="520" type="line"/>
      <point x="520" y="400" type="line"/>
      <point x="480" y="320" type="line"/>
      <point x="160" y="240" type="line"/>
      <point x="200" y="80" type="line"/>
      <point x="320" y="40" type="line"/>
      <point x="400" y="80" type="line"/>
      <point x="480" y="160" type="line"/>
      <point x="520" y="120" type="line"/>
      <point x="440" y="40" type="line"/>
      <point x="360" y="0" type="line"/>
      <point x="240" y="0" type="line"/>
      <point x="120" y="40" type="line"/>
      <point x="40" y="200" type="line"/>
      <point x="40" y="360" type="line"/>
      <point x="120" y="520" type="line"/>
    </contour>
    <contour>
      <point x="280" y="520" type="line"/>
      <point x="200" y="480" type="line"/>
      <point x="160" y="280" type="line"/>
      <point x="360" y="360" type="line"/>
      <point x="360" y="480" type="line"/>
    </contour>
  </outline>
</glyph>
<glyph name="f" format="1">
  <advance width="380"/>
  <unicode hex="0066"/>
  <outline>
    <contour>
      <point x="220" y="520" type="line"/>
      <point x="340" y="520" type="line"/>
      <point x="340" y="480" type="line"/>
      <point x="300" y="480" type="line"/>
      <point x="220" y="440" type="line"/>
      <point x="220" y="80" type="line"/>
      <point x="300" y="0" type="line"/>
      <point x="20" y="0" type="line"/>
      <point x="100" y="80" type="line"/>
      <point x="100" y="440" type="line"/>
      <point x="60" y="480" type="line"/>
      <point x="60" y="520" type="line"/>
      <point x="100" y="520" type="line"/>
      <point x="100" y="680" type="line"/>
      <point x="140" y="760" type="line"/>
      <point x="180" y="800" type="line"/>
      <point x="260" y="840" type="line"/>
      <point x="420" y="800" type="line"/>
      <point x="420" y="680" type="line"/>
      <point x="380" y="640" type="line"/>
      <point x="300" y="680" type="line"/>
      <point x="340" y="760" type="line"/>
      <point x="260" y="800" type="line"/>
      <point x="220" y="720" type="line"/>
    </contour>
  </outline>
</glyph>
<glyph name="g" format="1">
  <advance width="600"/>
  <unicode hex="0067"/>
  <outline>
    <contour>
      <point x="560" y="560" type="line"/>
      <point x="600" y="440" type="line"/>
      <point x="560" y="440" type="line"/>
      <point x="480" y="480" type="line"/>
      <point x="520" y="400" type="line"/>
      <point x="520" y="320" type="line"/>
      <point x="480" y="240" type="line"/>
      <point x="360" y="160" type="line"/>
      <point x="240" y="120" type="line"/>
      <point x="440" y="40" type="line"/>
      <point x="560" y="-80" type="line"/>
      <point x="560" y="-160" type="line"/>
      <point x="480" y="-280" type="line"/>
      <point x="360" y="-320" type="line"/>
      <point x="280" y="-320" type="line"/>
      <point x="120" y="-280" type="line"/>
      <point x="40" y="-160" type="line"/>
      <point x="40" y="-80" type="line"/>
      <point x="200" y="40" type="line"/>
      <point x="120" y="80" type="line"/>
      <point x="160" y="120" type="line"/>
      <point x="240" y="160" type="line"/>
      <point x="120" y="200" type="line"/>
      <point x="40" y="320" type="line"/>
      <point x="40" y="400" type="line"/>
      <point x="120" y="520" type="line"/>
      <point x="240" y="560" type="line"/>
      <point x="320" y="560" type="line"/>
      <point x="440" y="520" type="line"/>
    </contour>
    <contour>
      <point x="280" y="520" type="line"/>
      <point x="200" y="480" type="line"/>
      <point x="160" y="360" type="line"/>
      <point x="200" y="240" type="line"/>
      <point x="280" y="200" type="line"/>
      <point x="360" y="240" type="line"/>
      <point x="400" y="360" type="line"/>
      <point x="360" y="480" type="line"/>
    </contour>
    <contour>
      <point x="240" y="0" type="line"/>
      <point x="160" y="-80" type="line"/>
      <point x="160" y="-160" type="line"/>
      <point x="240" y="-240" type="line"/>
      <point x="360" y="-280" type="line"/>
      <point x="440" y="-200" type="line"/>
      <point x="440" y="-120" type="line"/>
      <point x="360" y="-40" type="line"/>
    </contour>
  </outline>
</glyph>
<glyph name="h" format="1">
  <advance width="640"/>
  <unicode hex="0068"/>
  <outline>
    <contour>
      <point x="20" y="760" type="line"/>
      <point x="220" y="840" type="line"/>
      <point x="220" y="440" type="line"/>
      <point x="260" y="520" type="line"/>
      <point x="340" y="560" type="line"/>
      <point x="500" y="520" type="line"/>
      <point x="540" y="440" type="line"/>
      <point x="540" y="80" type="line"/>
      <point x="620" y="0" type="line"/>
      <point x="340" y="0" type="line"/>
      <point x="420" y="80" type="line"/>
      <point x="420" y="440" type="line"/>
      <point x="380" y="480" type="line"/>
      <point x="300" y="480" type="line"/>
      <point x="220" y="360" type="line"/>
      <point x="220" y="80" type="line"/>
      <point x="300" y="0" type="line"/>
      <point x="20" y="0" type="line"/>
      <point x="100" y="80" type="line"/>
      <point x="100" y="720" type="line"/>
    </contour>
  </outline>
</glyph>
<glyph name="i" format="1">
  <advance width="360"/>
  <unicode hex="0069"/>
  <outline>
    <contour>
      <point x="40" y="480" type="line"/>
      <point x="240" y="560" type="line"/>
      <point x="240" y="80" type="line"/>
      <point x="320" y="0" type="line"/>
      <point x="40" y="0" type="line"/>
      <point x="120" y="80" type="line"/>
      <point x="120" y="440" type="line"/>
    </contour>
    <contour>
      <point x="160" y="640" type="line"/>
      <point x="80" y="680" type="line"/>
      <point x="80" y="720" type="line"/>
      <point x="120" y="800" type="line"/>
      <point x="160" y="800" type="line"/>
      <point x="240" y="760" type="line"/>
      <point x="240" y="720" type="line"/>
      <point x="200" y="640" type="line"/>
    </contour>
  </outline>
</glyph>
<glyph name="j" format="1">
  <advance width="321"/>
  <unicode hex="006A"/>
  <outline>
    <contour>
      <point x="40" y="480" type="line"/>
      <point x="240" y="560" type="line"/>
      <point x="240" y="-40" type="line"/>
      <point x="160" y="-200" type="line"/>
      <point x="0" y="-320" type="line"/>
      <point x="-40" y="-280" type="line"/>
      <point x="80" y="-160" type="line"/>
      <point x="120" y="-40" type="line"/>
      <point x="120" y="440" type="line"/>
    </contour>
    <contour>
      <point x="160" y="640" type="line"/>
      <point x="80" y="680" type="line"/>
      <point x="80" y="720" type="line"/>
      <point x="120" y="800" type="line"/>
      <point x="160" y="800" type="line"/>
      <point x="240" y="760" type="line"/>
      <point x="240" y="720" type="line"/>
      <point x="200" y="640" type="line"/>
    </contour>
  </outline>
</glyph>
<glyph name="k" format="1">
  <advance width="560"/>
  <unicode hex="006B"/>
  <outline>
    <contour>
      <point x="20" y="760" type="line"/>
      <point x="220" y="840" type="line"/>
      <point x="220" y="280" type="line"/>
      <point x="380" y="440" type="line"/>
      <point x="300" y="520" type="line"/>
      <point x="540" y="520" type="line"/>
      <point x="340" y="320" type="line"/>
      <point x="580" y="0" type="line"/>
      <point x="540" y="-40" type="line"/>
      <point x="420" y="40" type="line"/>
      <point x="260" y="240" type="line"/>
      <point x="220" y="200" type="line"/>
      <point x="220" y="80" type="line"/>
      <point x="300" y="0" type="line"/>
      <point x="20" y="0" type="line"/>
      <point x="100" y="80" type="line"/>
      <point x="100" y="720" type="line"/>
    </contour>
  </outline>
</glyph>
<glyph name="l" format="1">
  <advance width="320"/>
  <unicode hex="006C"/>
  <outline>
    <contour>
      <point x="20" y="760" type="line"/>
      <point x="220" y="840" type="line"/>
      <point x="220" y="80" type="line"/>
      <point x="300" y="0" type="line"/>
      <point x="20" y="0" type="line"/>
      <point x="100" y="80" type="line"/>
      <point x="100" y="720" type="line"/>
    </contour>
  </outline>
</glyph>
<glyph name="n" format="1">
  <advance width="680"/>
  <unicode hex="006E"/>
  <outline>
    <contour>
      <point x="40" y="0" type="line"/>
      <point x="120" y="80" type="line"/>
      <point x="120" y="440" type="line"/>
      <point x="40" y="480" type="line"/>
      <point x="240" y="560" type="line"/>
      <point x="200" y="400" type="line"/>
      <point x="320" y="520" type="line"/>
      <point x="400" y="560" type="line"/>
      <point x="560" y="520" type="line"/>
      <point x="600" y="440" type="line"/>
      <point x="600" y="80" type="line"/>
      <point x="680" y="0" type="line"/>
      <point x="400" y="0" type="line"/>
      <point x="480" y="80" type="line"/>
      <point x="480" y="440" type="line"/>
      <point x="440" y="480" type="line"/>
      <point x="360" y="480" type="line"/>
      <point x="240" y="360" type="line"/>
      <point x="240" y="80" type="line"/>
      <point x="320" y="0" type="line"/>
    </contour>
  </outline>
</glyph>
<glyph name="o" format="1">
  <advance width="560"/>
  <unicode hex="006F"/>
  <outline>
    <contour>
      <point x="240" y="560" type="line"/>
      <point x="320" y="560" type="line"/>
      <point x="440" y="520" type="line"/>
      <point x="520" y="360" type="line"/>
      <point x="520" y="200" type="line"/>
      <point x="440" y="40" type="line"/>
      <point x="320" y="0" type="line"/>
      <point x="240" y="0" type="line"/>
      <point x="120" y="40" type="line"/>
      <point x="40" y="200" type="line"/>
      <point x="40" y="360" type="line"/>
      <point x="120" y="520" type="line"/>
    </contour>
    <contour>
      <point x="280" y="520" type="line"/>
      <point x="200" y="480" type="line"/>
      <point x="160" y="280" type="line"/>
      <point x="200" y="80" type="line"/>
      <point x="280" y="40" type="line"/>
      <point x="360" y="80" type="line"/>
      <point x="400" y="280" type="line"/>
      <point x="360" y="480" type="line"/>
    </contour>
  </outline>
</glyph>
<glyph name="p" format="1">
  <advance width="620"/>
  <unicode hex="0070"/>
  <outline>
    <contour>
      <point x="380" y="560" type="line"/>
      <point x="500" y="520" type="line"/>
      <point x="580" y="360" type="line"/>
      <point x="580" y="200" type="line"/>
      <point x="500" y="40" type="line"/>
      <point x="380" y="0" type="line"/>
      <point x="300" y="0" type="line"/>
      <point x="220" y="40" type="line"/>
      <point x="220" y="-240" type="line"/>
      <point x="300" y="-320" type="line"/>
      <point x="20" y="-320" type="line"/>
      <point x="100" y="-240" type="line"/>
      <point x="100" y="440" type="line"/>
      <point x="20" y="480" type="line"/>
      <point x="220" y="560" type="line"/>
      <point x="180" y="400" type="line"/>
      <point x="300" y="520" type="line"/>
    </contour>
    <contour>
      <point x="340" y="480" type="line"/>
      <point x="220" y="360" type="line"/>
      <point x="220" y="160" type="line"/>
      <point x="260" y="80" type="line"/>
      <point x="340" y="40" type="line"/>
      <point x="420" y="80" type="line"/>
      <point x="460" y="280" type="line"/>
      <point x="420" y="480" type="line"/>
    </contour>
  </outline>
</glyph>
<glyph name="q" format="1">
  <advance width="660"/>
  <unicode hex="0071"/>
  <outline>
    <contour>
      <point x="640" y="480" type="line"/>
      <point x="560" y="440" type="line"/>
      <point x="560" y="-240" type="line"/>
      <point x="640" y="-320" type="line"/>
      <point x="360" y="-320" type="line"/>
      <point x="440" y="-240" type="line"/>
      <point x="440" y="40" type="line"/>
      <point x="360" y="0" type="line"/>
      <point x="280" y="0" type="line"/>
      <point x="160" y="40" type="line"/>
      <point x="80" y="200" type="line"/>
      <point x="80" y="360" type="line"/>
      <point x="160" y="520" type="line"/>
      <point x="320" y="560" type="line"/>
      <point x="400" y="520" type="line"/>
      <point x="480" y="440" type="line"/>
      <point x="520" y="560" type="line"/>
    </contour>
    <contour>
      <point x="360" y="480" type="line"/>
      <point x="240" y="480" type="line"/>
      <point x="200" y="280" type="line"/>
      <point x="240" y="80" type="line"/>
      <point x="320" y="40" type="line"/>
      <point x="400" y="80" type="line"/>
      <point x="440" y="160" type="line"/>
      <point x="440" y="400" type="line"/>
    </contour>
  </outline>
</glyph>
<glyph name="r" format="1">
  <advance width="530"/>
  <unicode hex="0072"/>
  <outline>
    <contour>
      <point x="270" y="560" type="line"/>
      <point x="230" y="400" type="line"/>
      <point x="230" y="360" type="line"/>
      <point x="350" y="520" type="line"/>
      <point x="430" y="560" type="line"/>
      <point x="510" y="520" type="line"/>
      <point x="510" y="440" type="line"/>
      <point x="430" y="320" type="line"/>
      <point x="390" y="320" type="line"/>
      <point x="390" y="440" type="line"/>
      <point x="350" y="440" type="line"/>
      <point x="270" y="360" type="line"/>
      <point x="270" y="80" type="line"/>
      <point x="350" y="0" type="line"/>
      <point x="70" y="0" type="line"/>
      <point x="150" y="80" type="line"/>
      <point x="150" y="440" type="line"/>
      <point x="30" y="480" type="line"/>
    </contour>
  </outline>
</glyph>
<glyph name="s" format="1">
  <advance width="470"/>
  <unicode hex="0073"/>
  <outline>
    <contour>
      <point x="410" y="360" type="line"/>
      <point x="370" y="360" type="line"/>
      <point x="290" y="480" type="line"/>
      <point x="210" y="480" type="line"/>
      <point x="170" y="440" type="line"/>
      <point x="170" y="400" type="line"/>
      <point x="410" y="240" type="line"/>
      <point x="450" y="160" type="line"/>
      <point x="410" y="40" type="line"/>
      <point x="330" y="0" type="line"/>
      <point x="210" y="0" type="line"/>
      <point x="130" y="40" type="line"/>
      <point x="90" y="0" type="line"/>
      <point x="50" y="200" type="line"/>
      <point x="90" y="200" type="line"/>
      <point x="170" y="80" type="line"/>
      <point x="250" y="40" type="line"/>
      <point x="330" y="80" type="line"/>
      <point x="330" y="160" type="line"/>
      <point x="90" y="320" type="line"/>
      <point x="50" y="400" type="line"/>
      <point x="90" y="520" type="line"/>
      <point x="250" y="560" type="line"/>
      <point x="330" y="520" type="line"/>
      <point x="370" y="560" type="line"/>
    </contour>
  </outline>
</glyph>
<glyph name="t" format="1">
  <advance width="380"/>
  <unicode hex="0074"/>
  <outline>
    <contour>
      <point x="220" y="680" type="line"/>
      <point x="220" y="520" type="line"/>
      <point x="340" y="520" type="line"/>
      <point x="340" y="480" type="line"/>
      <point x="220" y="440" type="line"/>
      <point x="220" y="120" type="line"/>
      <point x="260" y="80" type="line"/>
      <point x="340" y="160" type="line"/>
      <point x="380" y="120" type="line"/>
      <point x="300" y="40" type="line"/>
      <point x="220" y="0" type="line"/>
      <point x="180" y="0" type="line"/>
      <point x="100" y="120" type="line"/>
      <point x="100" y="440" type="line"/>
      <point x="20" y="480" type="line"/>
      <point x="20" y="520" type="line"/>
      <point x="100" y="560" type="line"/>
      <point x="140" y="600" type="line"/>
      <point x="180" y="680" type="line"/>
    </contour>
  </outline>
</glyph>
<glyph name="u" format="1">
  <advance width="600"/>
  <unicode hex="0075"/>
  <outline>
    <contour>
      <point x="600" y="80" type="line"/>
      <point x="520" y="0" type="line"/>
      <point x="480" y="0" type="line"/>
      <point x="440" y="80" type="line"/>
      <point x="320" y="0" type="line"/>
      <point x="240" y="0" type="line"/>
      <point x="120" y="40" type="line"/>
      <point x="80" y="120" type="line"/>
      <point x="80" y="480" type="line"/>
      <point x="0" y="520" type="line"/>
      <point x="200" y="560" type="line"/>
      <point x="200" y="120" type="line"/>
      <point x="240" y="80" type="line"/>
      <point x="320" y="80" type="line"/>
      <point x="360" y="120" type="line"/>
      <point x="400" y="200" type="line"/>
      <point x="400" y="480" type="line"/>
      <point x="320" y="520" type="line"/>
      <point x="520" y="560" type="line"/>
      <point x="520" y="80" type="line"/>
      <point x="600" y="120" type="line"/>
    </contour>
  </outline>
</glyph>
<glyph name="v" format="1">
  <advance width="600"/>
  <unicode hex="0076"/>
  <outline>
    <contour>
      <point x="320" y="0" type="line"/>
      <point x="240" y="0" type="line"/>
      <point x="80" y="440" type="line"/>
      <point x="0" y="520" type="line"/>
      <point x="280" y="520" type="line"/>
      <point x="200" y="440" type="line"/>
      <point x="320" y="120" type="line"/>
      <point x="440" y="440" type="line"/>
      <point x="360" y="520" type="line"/>
      <point x="600" y="520" type="line"/>
      <point x="520" y="440" type="line"/>
      <point x="360" y="80" type="line"/>
    </contour>
  </outline>
</glyph>
<glyph name="w" format="1">
  <advance width="920"/>
  <unicode hex="0077"/>
  <outline>
    <contour>
      <point x="440" y="320" type="line"/>
      <point x="360" y="80" type="line"/>
      <point x="320" y="0" type="line"/>
      <point x="240" y="0" type="line"/>
      <point x="80" y="440" type="line"/>
      <point x="0" y="520" type="line"/>
      <point x="280" y="520" type="line"/>
      <point x="200" y="440" type="line"/>
      <point x="320" y="120" type="line"/>
      <point x="440" y="440" type="line"/>
      <point x="520" y="480" type="line"/>
      <point x="640" y="120" type="line"/>
      <point x="760" y="440" type="line"/>
      <point x="680" y="520" type="line"/>
      <point x="920" y="520" type="line"/>
      <point x="840" y="440" type="line"/>
      <point x="680" y="80" type="line"/>
      <point x="640" y="0" type="line"/>
      <point x="560" y="0" type="line"/>
    </contour>
  </outline>
</glyph>
<glyph name="x" format="1">
  <advance width="560"/>
  <unicode hex="0078"/>
  <outline>
    <contour>
      <point x="480" y="80" type="line"/>
      <point x="560" y="0" type="line"/>
      <point x="320" y="0" type="line"/>
      <point x="360" y="80" type="line"/>
      <point x="280" y="200" type="line"/>
      <point x="200" y="80" type="line"/>
      <point x="240" y="0" type="line"/>
      <point x="0" y="0" type="line"/>
      <point x="240" y="240" type="line"/>
      <point x="80" y="440" type="line"/>
      <point x="0" y="520" type="line"/>
      <point x="240" y="520" type="line"/>
      <point x="200" y="440" type="line"/>
      <point x="280" y="320" type="line"/>
      <point x="360" y="440" type="line"/>
      <point x="320" y="520" type="line"/>
      <point x="560" y="520" type="line"/>
      <point x="320" y="280" type="line"/>
    </contour>
  </outline>
</glyph>
<glyph name="y" format="1">
  <advance width="640"/>
  <unicode hex="0079"/>
  <outline>
    <contour>
      <point x="280" y="40" type="line"/>
      <point x="80" y="440" type="line"/>
      <point x="0" y="520" type="line"/>
      <point x="280" y="520" type="line"/>
      <point x="200" y="440" type="line"/>
      <point x="320" y="120" type="line"/>
      <point x="480" y="440" type="line"/>
      <point x="400" y="520" type="line"/>
      <point x="640" y="520" type="line"/>
      <point x="560" y="440" type="line"/>
      <point x="160" y="-320" type="line"/>
      <point x="80" y="-320" type="line"/>
      <point x="40" y="-280" type="line"/>
    </contour>
  </outline>
</glyph>
<glyph name="z" format="1">
  <advance width="560"/>
  <unicode hex="007A"/>
  <outline>
    <contour>
      <point x="400" y="40" type="line"/>
      <point x="480" y="160" type="line"/>
      <point x="520" y="160" type="line"/>
      <point x="480" y="0" type="line"/>
      <point x="40" y="0" type="line"/>
      <point x="40" y="40" type="line"/>
      <point x="360" y="480" type="line"/>
      <point x="200" y="480" type="line"/>
      <point x="120" y="360" type="line"/>
      <point x="80" y="360" type="line"/>
      <point x="120" y="560" type="line"/>
      <point x="160" y="520" type="line"/>
      <point x="520" y="520" type="line"/>
      <point x="160" y="80" type="line"/>
    </contour>
  </outline>
</glyph>
<glyph name="braceleft" format="1">
  <advance width="280"/>
  <unicode hex="007B"/>
  <outline>
    <contour>
      <point x="280" y="-160" type="line"/>
      <point x="200" y="-120" type="line"/>
      <point x="80" y="40" type="line"/>
      <point x="80" y="240" type="line"/>
      <point x="0" y="320" type="line"/>
      <point x="80" y="399" type="line"/>
      <point x="80" y="600" type="line"/>
      <point x="200" y="760" type="line"/>
      <point x="280" y="800" type="line"/>
      <point x="280" y="760" type="line"/>
      <point x="240" y="720" type="line"/>
      <point x="200" y="600" type="line"/>
      <point x="200" y="480" type="line"/>
      <point x="160" y="360" type="line"/>
      <point x="79" y="320" type="line"/>
      <point x="160" y="280" type="line"/>
      <point x="200" y="160" type="line"/>
      <point x="200" y="40" type="line"/>
      <point x="240" y="-80" type="line"/>
      <point x="280" y="-120" type="line"/>
    </contour>
  </outline>
</glyph>
<glyph name="braceright" format="1">
  <advance width="280"/>
  <unicode hex="007D"/>
  <outline>
    <contour>
      <point x="0" y="-120" type="line"/>
      <point x="40" y="-80" type="line"/>
      <point x="80" y="40" type="line"/>
      <point x="80" y="160" type="line"/>
      <point x="120" y="280" type="line"/>
      <point x="201" y="320" type="line"/>
      <point x="120" y="360" type="line"/>
      <point x="80" y="480" type="line"/>
      <point x="80" y="600" type="line"/>
      <point x="40" y="720" type="line"/>
      <point x="0" y="760" type="line"/>
      <point x="0" y="800" type="line"/>
      <point x="80" y="760" type="line"/>
      <point x="200" y="600" type="line"/>
      <point x="200" y="399" type="line"/>
      <point x="280" y="320" type="line"/>
      <point x="200" y="240" type="line"/>
      <point x="200" y="40" type="line"/>
      <point x="80" y="-120" type="line"/>
      <point x="0" y="-160" type="line"/>
    </contour>
  </outline>
</glyph>
<glyph name="asciitilde" format="1">
  <advance width="600"/>
  <unicode hex="007E"/>
  <outline>
    <contour>
      <point x="120" y="400" type="line"/>
      <point x="240" y="320" type="line"/>
      <point x="320" y="400" type="line"/>
      <point x="400" y="400" type="line"/>
      <point x="520" y="320" type="line"/>
      <point x="480" y="280" type="line"/>
      <point x="360" y="360" type="line"/>
      <point x="280" y="280" type="line"/>
      <point x="200" y="280" type="line"/>
      <point x="80" y="360" type="line"/>
    </contour>
  </outline>
</glyph>
<glyph name="exclamdown" format="1">
  <advance width="240"/>
  <unicode hex="00A1"/>
  <outline>
    <contour>
      <point x="40" y="-280" type="line"/>
      <point x="40" y="-160" type="line"/>
      <point x="80" y="240" type="line"/>
      <point x="120" y="240" type="line"/>
      <point x="200" y="-160" type="line"/>
      <point x="200" y="-280" type="line"/>
      <point x="160" y="-320" type="line"/>
      <point x="80" y="-320" type="line"/>
    </contour>
    <contour>
      <point x="160" y="480" type="line"/>
      <point x="200" y="400" type="line"/>
      <point x="200" y="360" type="line"/>
      <point x="120" y="320" type="line"/>
      <point x="80" y="320" type="line"/>
      <point x="40" y="400" type="line"/>
      <point x="40" y="440" type="line"/>
      <point x="120" y="480" type="line"/>
    </contour>
  </outline>
</glyph>
<glyph name="cent" format="1">
  <advance width="520"/>
  <unicode hex="00A2"/>
  <outline>
    <contour>
      <point x="360" y="-40" type="line"/>
      <point x="320" y="-40" type="line"/>
      <point x="291" y="120" type="line"/>
      <point x="200" y="120" type="line"/>
      <point x="80" y="160" type="line"/>
      <point x="0" y="320" type="line"/>
      <point x="0" y="480" type="line"/>
      <point x="80" y="640" type="line"/>
      <point x="189" y="676" type="line"/>
      <point x="160" y="840" type="line"/>
      <point x="200" y="840" type="line"/>
      <point x="229" y="680" type="line"/>
      <point x="280" y="680" type="line"/>
      <point x="400" y="640" type="line"/>
      <point x="440" y="560" type="line"/>
      <point x="360" y="480" type="line"/>
      <point x="320" y="480" type="line"/>
      <point x="320" y="600" type="line"/>
      <point x="240" y="640" type="line"/>
      <point x="236" y="638" type="line"/>
      <point x="320" y="180" type="line"/>
      <point x="360" y="200" type="line"/>
      <point x="400" y="280" type="line"/>
      <point x="480" y="240" type="line"/>
      <point x="400" y="160" type="line"/>
      <point x="330" y="125" type="line"/>
    </contour>
    <contour>
      <point x="120" y="440" type="line"/>
      <point x="120" y="360" type="line"/>
      <point x="160" y="200" type="line"/>
      <point x="280" y="160" type="line"/>
      <point x="283" y="161" type="line"/>
      <point x="200" y="620" type="line"/>
      <point x="160" y="600" type="line"/>
    </contour>
  </outline>
</glyph>
<glyph name="sterling" format="1">
  <advance width="720"/>
  <unicode hex="00A3"/>
  <outline>
    <contour>
      <point x="120" y="400" type="line"/>
      <point x="280" y="400" type="line"/>
      <point x="280" y="440" type="line"/>
      <point x="200" y="600" type="line"/>
      <point x="280" y="720" type="line"/>
      <point x="480" y="800" type="line"/>
      <point x="640" y="720" type="line"/>
      <point x="680" y="640" type="line"/>
      <point x="600" y="560" type="line"/>
      <point x="520" y="560" type="line"/>
      <point x="520" y="680" type="line"/>
      <point x="400" y="680" type="line"/>
      <point x="360" y="600" type="line"/>
      <point x="400" y="440" type="line"/>
      <point x="400" y="400" type="line"/>
      <point x="560" y="400" type="line"/>
      <point x="560" y="360" type="line"/>
      <point x="400" y="360" type="line"/>
      <point x="400" y="320" type="line"/>
      <point x="280" y="120" type="line"/>
      <point x="200" y="40" type="line"/>
      <point x="520" y="40" type="line"/>
      <point x="640" y="240" type="line"/>
      <point x="680" y="240" type="line"/>
      <point x="640" y="-40" type="line"/>
      <point x="560" y="0" type="line"/>
      <point x="40" y="0" type="line"/>
      <point x="40" y="40" type="line"/>
      <point x="200" y="120" type="line"/>
      <point x="280" y="320" type="line"/>
      <point x="280" y="360" type="line"/>
      <point x="120" y="360" type="line"/>
    </contour>
  </outline>
</glyph>
<glyph name="yen" format="1">
  <advance width="680"/>
  <unicode hex="00A5"/>
  <outline>
    <contour>
      <point x="560" y="280" type="line"/>
      <point x="400" y="280" type="line"/>
      <point x="400" y="200" type="line"/>
      <point x="560" y="200" type="line"/>
      <point x="560" y="160" type="line"/>
      <point x="400" y="160" type="line"/>
      <point x="400" y="80" type="line"/>
      <point x="480" y="0" type="line"/>
      <point x="200" y="0" type="line"/>
      <point x="280" y="80" type="line"/>
      <point x="280" y="160" type="line"/>
      <point x="120" y="160" type="line"/>
      <point x="120" y="200" type="line"/>
      <point x="280" y="200" type="line"/>
      <point x="280" y="280" type="line"/>
      <point x="120" y="280" type="line"/>
      <point x="120" y="320" type="line"/>
      <point x="280" y="320" type="line"/>
      <point x="280" y="360" type="line"/>
      <point x="80" y="720" type="line"/>
      <point x="0" y="800" type="line"/>
      <point x="280" y="800" type="line"/>
      <point x="200" y="720" type="line"/>
      <point x="360" y="440" type="line"/>
      <point x="400" y="440" type="line"/>
      <point x="520" y="720" type="line"/>
      <point x="440" y="800" type="line"/>
      <point x="680" y="800" type="line"/>
      <point x="600" y="720" type="line"/>
      <point x="400" y="360" type="line"/>
      <point x="400" y="320" type="line"/>
      <point x="560" y="320" type="line"/>
    </contour>
  </outline>
</glyph>
<glyph name="brokenbar" format="1">
  <advance width="120"/>
  <unicode hex="00A6"/>
  <outline>
    <contour>
      <point x="40" y="280" type="line"/>
      <point x="80" y="280" type="line"/>
      <point x="80" y="-80" type="line"/>
      <point x="40" y="-80" type="line"/>
    </contour>
    <contour>
      <point x="40" y="760" type="line"/>
      <point x="80" y="760" type="line"/>
      <point x="80" y="400" type="line"/>
      <point x="40" y="400" type="line"/>
    </contour>
  </outline>
</glyph>
<glyph name="section" format="1">
  <advance width="560"/>
  <unicode hex="00A7"/>
  <outline>
    <contour>
      <point x="440" y="600" type="line"/>
      <point x="400" y="600" type="line"/>
      <point x="320" y="720" type="line"/>
      <point x="240" y="720" type="line"/>
      <point x="200" y="640" type="line"/>
      <point x="200" y="560" type="line"/>
      <point x="280" y="480" type="line"/>
      <point x="440" y="400" type="line"/>
      <point x="480" y="240" type="line"/>
      <point x="440" y="80" type="line"/>
      <point x="320" y="40" type="line"/>
      <point x="440" y="-40" type="line"/>
      <point x="480" y="-160" type="line"/>
      <point x="400" y="-280" type="line"/>
      <point x="240" y="-320" type="line"/>
      <point x="160" y="-280" type="line"/>
      <point x="120" y="-320" type="line"/>
      <point x="80" y="-120" type="line"/>
      <point x="120" y="-120" type="line"/>
      <point x="200" y="-240" type="line"/>
      <point x="280" y="-240" type="line"/>
      <point x="320" y="-200" type="line"/>
      <point x="360" y="-80" type="line"/>
      <point x="281" y="-1" type="line"/>
      <point x="120" y="80" type="line"/>
      <point x="80" y="240" type="line"/>
      <point x="120" y="400" type="line"/>
      <point x="240" y="440" type="line"/>
      <point x="120" y="520" type="line"/>
      <point x="80" y="640" type="line"/>
      <point x="120" y="760" type="line"/>
      <point x="280" y="800" type="line"/>
      <point x="360" y="760" type="line"/>
      <point x="400" y="800" type="line"/>
    </contour>
    <contour>
      <point x="200" y="320" type="line"/>
      <point x="200" y="160" type="line"/>
      <point x="280" y="80" type="line"/>
      <point x="320" y="80" type="line"/>
      <point x="360" y="160" type="line"/>
      <point x="360" y="320" type="line"/>
      <point x="280" y="400" type="line"/>
      <point x="240" y="400" type="line"/>
    </contour>
  </outline>
</glyph>
<glyph name="dieresis" format="1">
  <advance width="833"/>
  <unicode hex="00A8"/>
  <outline>
    <contour>
      <point x="200" y="800" type="line"/>
      <point x="280" y="800" type="line"/>
      <point x="280" y="720" type="line"/>
      <point x="240" y="680" type="line"/>
      <point x="200" y="680" type="line"/>
      <point x="160" y="720" type="line"/>
      <point x="160" y="760" type="line"/>
    </contour>
    <contour>
      <point x="360" y="800" type="line"/>
      <point x="440" y="800" type="line"/>
      <point x="440" y="720" type="line"/>
      <point x="400" y="680" type="line"/>
      <point x="360" y="680" type="line"/>
      <point x="320" y="720" type="line"/>
      <point x="320" y="760" type="line"/>
    </contour>
  </outline>
</glyph>
<glyph name="copyright" format="1">
  <advance width="833"/>
  <unicode hex="00A9"/>
  <outline>
    <contour>
      <point x="80" y="161" type="line"/>
      <point x="760" y="161" type="line"/>
      <point x="760" y="840" type="line"/>
      <point x="80" y="840" type="line"/>
    </contour>
    <contour>
      <point x="120" y="800" type="line"/>
      <point x="720" y="800" type="line"/>
      <point x="720" y="201" type="line"/>
      <point x="120" y="201" type="line"/>
    </contour>
    <contour>
      <point x="561" y="680" type="line"/>
      <point x="441" y="720" type="line"/>
      <point x="321" y="640" type="line"/>
      <point x="281" y="520" type="line"/>
      <point x="281" y="480" type="line"/>
      <point x="321" y="360" type="line"/>
      <point x="441" y="280" type="line"/>
      <point x="561" y="320" type="line"/>
      <point x="601" y="400" type="line"/>
      <point x="681" y="360" type="line"/>
      <point x="601" y="280" type="line"/>
      <point x="481" y="240" type="line"/>
      <point x="361" y="240" type="line"/>
      <point x="241" y="320" type="line"/>
      <point x="161" y="440" type="line"/>
      <point x="161" y="560" type="line"/>
      <point x="241" y="680" type="line"/>
      <point x="361" y="760" type="line"/>
      <point x="481" y="760" type="line"/>
      <point x="641" y="720" type="line"/>
      <point x="681" y="640" type="line"/>
      <point x="641" y="560" type="line"/>
      <point x="601" y="560" type="line"/>
    </contour>
  </outline>
</glyph>
<glyph name="guillemotleft" format="1">
  <advance width="520"/>
  <unicode hex="00AB"/>
  <outline>
    <contour>
      <point x="40" y="320" type="line"/>
      <point x="320" y="600" type="line"/>
      <point x="360" y="520" type="line"/>
      <point x="120" y="320" type="line"/>
      <point x="360" y="120" type="line"/>
      <point x="320" y="40" type="line"/>
    </contour>
    <contour>
      <point x="240" y="280" type="line"/>
      <point x="240" y="360" type="line"/>
      <point x="480" y="560" type="line"/>
      <point x="520" y="480" type="line"/>
      <point x="280" y="320" type="line"/>
      <point x="520" y="160" type="line"/>
      <point x="480" y="80" type="line"/>
    </contour>
  </outline>
</glyph>
<glyph name="registered" format="1">
  <advance width="840"/>
  <unicode hex="00AE"/>
  <outline>
    <contour>
      <point x="161" y="760" type="line"/>
      <point x="441" y="760" type="line"/>
      <point x="601" y="720" type="line"/>
      <point x="681" y="600" type="line"/>
      <point x="601" y="480" type="line"/>
      <point x="481" y="440" type="line"/>
      <point x="681" y="400" type="line"/>
      <point x="681" y="280" type="line"/>
      <point x="641" y="240" type="line"/>
      <point x="441" y="400" type="line"/>
      <point x="361" y="440" type="line"/>
      <point x="361" y="320" type="line"/>
      <point x="441" y="240" type="line"/>
      <point x="161" y="240" type="line"/>
      <point x="241" y="320" type="line"/>
      <point x="241" y="680" type="line"/>
    </contour>
    <contour>
      <point x="401" y="720" type="line"/>
      <point x="361" y="680" type="line"/>
      <point x="361" y="480" type="line"/>
      <point x="441" y="480" type="line"/>
      <point x="521" y="520" type="line"/>
      <point x="561" y="600" type="line"/>
      <point x="521" y="680" type="line"/>
      <point x="441" y="720" type="line"/>
    </contour>
    <contour>
      <point x="80" y="161" type="line"/>
      <point x="760" y="161" type="line"/>
      <point x="760" y="840" type="line"/>
      <point x="80" y="840" type="line"/>
    </contour>
    <contour>
      <point x="120" y="800" type="line"/>
      <point x="720" y="800" type="line"/>
      <point x="720" y="201" type="line"/>
      <point x="120" y="201" type="line"/>
    </contour>
  </outline>
</glyph>
<glyph name="degree" format="1">
  <advance width="480"/>
  <unicode hex="00B0"/>
  <outline>
    <contour>
      <point x="80" y="760" type="line"/>
      <point x="80" y="680" type="line"/>
      <point x="200" y="560" type="line"/>
      <point x="280" y="560" type="line"/>
      <point x="400" y="680" type="line"/>
      <point x="400" y="760" type="line"/>
      <point x="280" y="880" type="line"/>
      <point x="200" y="880" type="line"/>
    </contour>
    <contour>
      <point x="160" y="680" type="line"/>
      <point x="160" y="760" type="line"/>
      <point x="240" y="840" type="line"/>
      <point x="320" y="760" type="line"/>
      <point x="320" y="680" type="line"/>
      <point x="240" y="600" type="line"/>
    </contour>
  </outline>
</glyph>
<glyph name="plusminus" format="1">
  <advance width="600"/>
  <unicode hex="00B1"/>
  <outline>
    <contour>
      <point x="0" y="480" type="line"/>
      <point x="240" y="480" type="line"/>
      <point x="240" y="720" type="line"/>
      <point x="320" y="720" type="line"/>
      <point x="320" y="480" type="line"/>
      <point x="560" y="480" type="line"/>
      <point x="560" y="400" type="line"/>
      <point x="320" y="400" type="line"/>
      <point x="320" y="160" type="line"/>
      <point x="240" y="160" type="line"/>
      <point x="240" y="400" type="line"/>
      <point x="0" y="400" type="line"/>
    </contour>
    <component base="minus" yOffset="-280"/>
  </outline>
</glyph>
<glyph name="acute" format="1">
  <advance width="840"/>
  <unicode hex="00B4"/>
  <outline>
    <contour>
      <point x="200" y="640" type="line"/>
      <point x="360" y="800" type="line"/>
      <point x="400" y="800" type="line"/>
      <point x="440" y="760" type="line"/>
      <point x="440" y="720" type="line"/>
      <point x="240" y="640" type="line"/>
    </contour>
  </outline>
</glyph>
<glyph name="paragraph" format="1">
  <advance width="520"/>
  <unicode hex="00B6"/>
  <outline>
    <contour>
      <point x="400" y="760" type="line"/>
      <point x="320" y="760" type="line"/>
      <point x="320" y="-320" type="line"/>
      <point x="280" y="-320" type="line"/>
      <point x="280" y="320" type="line"/>
      <point x="240" y="320" type="line"/>
      <point x="120" y="360" type="line"/>
      <point x="40" y="520" type="line"/>
      <point x="40" y="600" type="line"/>
      <point x="120" y="760" type="line"/>
      <point x="240" y="800" type="line"/>
      <point x="440" y="800" type="line"/>
      <point x="440" y="-320" type="line"/>
      <point x="400" y="-320" type="line"/>
    </contour>
  </outline>
</glyph>
<glyph name="cedilla" format="1">
  <advance width="833"/>
  <unicode hex="00B8"/>
  <outline>
    <contour>
      <point x="200" y="-40" type="line"/>
      <point x="200" y="-80" type="line"/>
      <point x="320" y="-119" type="line"/>
      <point x="280" y="-200" type="line"/>
      <point x="240" y="-200" type="line"/>
      <point x="200" y="-120" type="line"/>
      <point x="160" y="-160" type="line"/>
      <point x="200" y="-240" type="line"/>
      <point x="321" y="-240" type="line"/>
      <point x="360" y="-160" type="line"/>
      <point x="360" y="-80" type="line"/>
      <point x="257" y="-45" type="line"/>
      <point x="280" y="0" type="line"/>
      <point x="240" y="40" type="line"/>
    </contour>
  </outline>
</glyph>
<glyph name="guillemotright" format="1">
  <advance width="520"/>
  <unicode hex="00BB"/>
  <outline>
    <contour>
      <point x="200" y="40" type="line"/>
      <point x="160" y="120" type="line"/>
      <point x="400" y="320" type="line"/>
      <point x="160" y="520" type="line"/>
      <point x="200" y="600" type="line"/>
      <point x="480" y="320" type="line"/>
    </contour>
    <contour>
      <point x="40" y="80" type="line"/>
      <point x="0" y="160" type="line"/>
      <point x="240" y="320" type="line"/>
      <point x="0" y="480" type="line"/>
      <point x="40" y="560" type="line"/>
      <point x="280" y="360" type="line"/>
      <point x="280" y="280" type="line"/>
    </contour>
  </outline>
</glyph>
<glyph name="onequarter" format="1">
  <advance width="960"/>
  <unicode hex="00BC"/>
  <outline>
    <contour>
      <point x="200" y="760" type="line"/>
      <point x="280" y="800" type="line"/>
      <point x="280" y="320" type="line"/>
      <point x="360" y="240" type="line"/>
      <point x="80" y="240" type="line"/>
      <point x="160" y="320" type="line"/>
      <point x="160" y="600" type="line"/>
      <point x="80" y="600" type="line"/>
      <point x="80" y="640" type="line"/>
      <point x="160" y="680" type="line"/>
    </contour>
    <contour>
      <point x="680" y="200" type="line"/>
      <point x="680" y="520" type="line"/>
      <point x="560" y="240" type="line"/>
    </contour>
    <contour>
      <point x="640" y="560" type="line"/>
      <point x="800" y="600" type="line"/>
      <point x="800" y="200" type="line"/>
      <point x="880" y="200" type="line"/>
      <point x="880" y="160" type="line"/>
      <point x="800" y="160" type="line"/>
      <point x="800" y="80" type="line"/>
      <point x="880" y="0" type="line"/>
      <point x="600" y="0" type="line"/>
      <point x="680" y="80" type="line"/>
      <point x="680" y="160" type="line"/>
      <point x="480" y="160" type="line"/>
      <point x="440" y="240" type="line"/>
    </contour>
    <component base="fraction" xOffset="280" yOffset="-40"/>
  </outline>
</glyph>
<glyph name="onehalf" format="1">
  <advance width="999"/>
  <unicode hex="00BD"/>
  <outline>
    <contour>
      <point x="599" y="440" type="line"/>
      <point x="599" y="280" type="line"/>
      <point x="559" y="280" type="line"/>
      <point x="479" y="360" type="line"/>
      <point x="519" y="480" type="line"/>
      <point x="639" y="560" type="line"/>
      <point x="679" y="560" type="line"/>
      <point x="799" y="520" type="line"/>
      <point x="879" y="400" type="line"/>
      <point x="879" y="320" type="line"/>
      <point x="839" y="240" type="line"/>
      <point x="759" y="160" type="line"/>
      <point x="599" y="80" type="line"/>
      <point x="759" y="40" type="line"/>
      <point x="879" y="200" type="line"/>
      <point x="919" y="200" type="line"/>
      <point x="879" y="-40" type="line"/>
      <point x="799" y="0" type="line"/>
      <point x="479" y="0" type="line"/>
      <point x="479" y="40" type="line"/>
      <point x="719" y="280" type="line"/>
      <point x="759" y="360" type="line"/>
      <point x="719" y="440" type="line"/>
      <point x="679" y="480" type="line"/>
    </contour>
    <contour>
      <point x="200" y="760" type="line"/>
      <point x="280" y="800" type="line"/>
      <point x="280" y="320" type="line"/>
      <point x="360" y="240" type="line"/>
      <point x="80" y="240" type="line"/>
      <point x="160" y="320" type="line"/>
      <point x="160" y="600" type="line"/>
      <point x="80" y="600" type="line"/>
      <point x="80" y="640" type="line"/>
      <point x="160" y="680" type="line"/>
    </contour>
    <component base="fraction" xOffset="290"/>
  </outline>
</glyph>
<glyph name="threequarters" format="1">
  <advance width="1120"/>
  <unicode hex="00BE"/>
  <outline>
    <contour>
      <point x="800" y="560" type="line"/>
      <point x="960" y="600" type="line"/>
      <point x="960" y="200" type="line"/>
      <point x="1040" y="200" type="line"/>
      <point x="1040" y="160" type="line"/>
      <point x="960" y="160" type="line"/>
      <point x="960" y="80" type="line"/>
      <point x="1040" y="0" type="line"/>
      <point x="760" y="0" type="line"/>
      <point x="840" y="80" type="line"/>
      <point x="840" y="160" type="line"/>
      <point x="640" y="160" type="line"/>
      <point x="600" y="240" type="line"/>
    </contour>
    <contour>
      <point x="400" y="560" type="line"/>
      <point x="480" y="520" type="line"/>
      <point x="520" y="440" type="line"/>
      <point x="520" y="400" type="line"/>
      <point x="480" y="320" type="line"/>
      <point x="360" y="240" type="line"/>
      <point x="280" y="240" type="line"/>
      <point x="160" y="280" type="line"/>
      <point x="120" y="320" type="line"/>
      <point x="80" y="400" type="line"/>
      <point x="160" y="480" type="line"/>
      <point x="200" y="480" type="line"/>
      <point x="200" y="360" type="line"/>
      <point x="240" y="320" type="line"/>
      <point x="320" y="280" type="line"/>
      <point x="360" y="320" type="line"/>
      <point x="400" y="400" type="line"/>
      <point x="400" y="440" type="line"/>
      <point x="320" y="520" type="line"/>
      <point x="240" y="480" type="line"/>
      <point x="280" y="600" type="line"/>
      <point x="320" y="560" type="line"/>
      <point x="400" y="640" type="line"/>
      <point x="360" y="720" type="line"/>
      <point x="280" y="760" type="line"/>
      <point x="240" y="720" type="line"/>
      <point x="200" y="640" type="line"/>
      <point x="160" y="640" type="line"/>
      <point x="160" y="760" type="line"/>
      <point x="280" y="800" type="line"/>
      <point x="320" y="800" type="line"/>
      <point x="440" y="760" type="line"/>
      <point x="480" y="680" type="line"/>
      <point x="440" y="600" type="line"/>
    </contour>
    <contour>
      <point x="840" y="200" type="line"/>
      <point x="840" y="520" type="line"/>
      <point x="720" y="240" type="line"/>
    </contour>
    <component base="fraction" xOffset="440" yOffset="-40"/>
  </outline>
</glyph>
<glyph name="questiondown" format="1">
  <advance width="520"/>
  <unicode hex="00BF"/>
  <outline>
    <contour>
      <point x="120" y="-40" type="line"/>
      <point x="120" y="-160" type="line"/>
      <point x="160" y="-240" type="line"/>
      <point x="240" y="-280" type="line"/>
      <point x="320" y="-240" type="line"/>
      <point x="360" y="-160" type="line"/>
      <point x="360" y="-80" type="line"/>
      <point x="320" y="0" type="line"/>
      <point x="120" y="120" type="line"/>
      <point x="120" y="160" type="line"/>
      <point x="200" y="240" type="line"/>
      <point x="240" y="240" type="line"/>
      <point x="200" y="160" type="line"/>
      <point x="240" y="120" type="line"/>
      <point x="400" y="40" type="line"/>
      <point x="480" y="-80" type="line"/>
      <point x="480" y="-160" type="line"/>
      <point x="400" y="-280" type="line"/>
      <point x="280" y="-320" type="line"/>
      <point x="200" y="-320" type="line"/>
      <point x="80" y="-280" type="line"/>
      <point x="0" y="-160" type="line"/>
      <point x="0" y="-120" type="line"/>
      <point x="80" y="-40" type="line"/>
    </contour>
    <component base="period" yScale="-1.0" xOffset="160" yOffset="480"/>
  </outline>
</glyph>
<glyph name="AE" format="1">
  <advance width="1080"/>
  <unicode hex="00C6"/>
  <outline>
    <contour>
      <point x="1040" y="240" type="line"/>
      <point x="1000" y="-40" type="line"/>
      <point x="920" y="0" type="line"/>
      <point x="400" y="0" type="line"/>
      <point x="480" y="80" type="line"/>
      <point x="480" y="240" type="line"/>
      <point x="230" y="240" type="line"/>
      <point x="160" y="80" type="line"/>
      <point x="240" y="0" type="line"/>
      <point x="0" y="0" type="line"/>
      <point x="80" y="80" type="line"/>
      <point x="400" y="800" type="line"/>
      <point x="800" y="800" type="line"/>
      <point x="960" y="840" type="line"/>
      <point x="1000" y="600" type="line"/>
      <point x="960" y="600" type="line"/>
      <point x="840" y="760" type="line"/>
      <point x="640" y="760" type="line"/>
      <point x="600" y="720" type="line"/>
      <point x="600" y="480" type="line"/>
      <point x="640" y="440" type="line"/>
      <point x="800" y="440" type="line"/>
      <point x="880" y="520" type="line"/>
      <point x="880" y="320" type="line"/>
      <point x="800" y="400" type="line"/>
      <point x="640" y="400" type="line"/>
      <point x="600" y="360" type="line"/>
      <point x="600" y="80" type="line"/>
      <point x="640" y="40" type="line"/>
      <point x="880" y="40" type="line"/>
      <point x="1000" y="240" type="line"/>
    </contour>
    <contour>
      <point x="440" y="720" type="line"/>
      <point x="247" y="280" type="line"/>
      <point x="480" y="280" type="line"/>
      <point x="480" y="680" type="line"/>
    </contour>
  </outline>
</glyph>
<glyph name="Ccedilla" format="1">
  <advance width="760"/>
  <unicode hex="00C7"/>
  <outline>
    <contour>
      <point x="200" y="240" type="line"/>
      <point x="280" y="120" type="line"/>
      <point x="440" y="40" type="line"/>
      <point x="560" y="80" type="line"/>
      <point x="640" y="160" type="line"/>
      <point x="680" y="240" type="line"/>
      <point x="720" y="200" type="line"/>
      <point x="640" y="80" type="line"/>
      <point x="520" y="0" type="line"/>
      <point x="441" y="0" type="line"/>
      <point x="418" y="-45" type="line"/>
      <point x="521" y="-80" type="line"/>
      <point x="521" y="-160" type="line"/>
      <point x="482" y="-240" type="line"/>
      <point x="361" y="-240" type="line"/>
      <point x="321" y="-160" type="line"/>
      <point x="361" y="-120" type="line"/>
      <point x="401" y="-200" type="line"/>
      <point x="441" y="-200" type="line"/>
      <point x="481" y="-119" type="line"/>
      <point x="361" y="-80" type="line"/>
      <point x="361" y="-40" type="line"/>
      <point x="381" y="0" type="line"/>
      <point x="320" y="0" type="line"/>
      <point x="160" y="80" type="line"/>
      <point x="80" y="200" type="line"/>
      <point x="40" y="400" type="line"/>
      <point x="80" y="600" type="line"/>
      <point x="160" y="720" type="line"/>
      <point x="320" y="800" type="line"/>
      <point x="520" y="800" type="line"/>
      <point x="680" y="720" type="line"/>
      <point x="720" y="640" type="line"/>
      <point x="640" y="560" type="line"/>
      <point x="560" y="560" type="line"/>
      <point x="560" y="680" type="line"/>
      <point x="480" y="760" type="line"/>
      <point x="400" y="760" type="line"/>
      <point x="280" y="680" type="line"/>
      <point x="200" y="560" type="line"/>
    </contour>
  </outline>
</glyph>
<glyph name="Icircumflex" format="1">
  <advance width="360"/>
  <unicode hex="00CE"/>
  <outline>
    <contour>
      <point x="40" y="920" type="line"/>
      <point x="160" y="1080" type="line"/>
      <point x="200" y="1080" type="line"/>
      <point x="320" y="920" type="line"/>
      <point x="280" y="920" type="line"/>
      <point x="199" y="960" type="line"/>
      <point x="160" y="960" type="line"/>
      <point x="80" y="920" type="line"/>
    </contour>
    <component base="I"/>
  </outline>
</glyph>
<glyph name="multiply" format="1">
  <advance width="641"/>
  <unicode hex="00D7"/>
  <outline>
    <contour>
      <point x="81" y="160" type="line"/>
      <point x="281" y="320" type="line"/>
      <point x="80" y="480" type="line"/>
      <point x="161" y="560" type="line"/>
      <point x="321" y="360" type="line"/>
      <point x="481" y="560" type="line"/>
      <point x="561" y="480" type="line"/>
      <point x="361" y="320" type="line"/>
      <point x="561" y="160" type="line"/>
      <point x="481" y="80" type="line"/>
      <point x="321" y="280" type="line"/>
      <point x="161" y="80" type="line"/>
    </contour>
  </outline>
</glyph>
<glyph name="Oslash" format="1">
  <advance width="960"/>
  <unicode hex="00D8"/>
  <outline>
    <contour>
      <point x="560" y="880" type="line"/>
      <point x="600" y="880" type="line"/>
      <point x="400" y="-80" type="line"/>
      <point x="360" y="-80" type="line"/>
    </contour>
    <component base="O" xOffset="40"/>
  </outline>
</glyph>
<glyph name="agrave" format="1">
  <advance width="600"/>
  <unicode hex="00E0"/>
  <outline>
    <contour>
      <point x="400" y="640" type="line"/>
      <point x="360" y="640" type="line"/>
      <point x="160" y="720" type="line"/>
      <point x="160" y="760" type="line"/>
      <point x="200" y="800" type="line"/>
      <point x="240" y="800" type="line"/>
    </contour>
    <component base="a" xOffset="20"/>
  </outline>
</glyph>
<glyph name="aacute" format="1">
  <advance width="600"/>
  <unicode hex="00E1"/>
  <outline>
    <contour>
      <point x="200" y="640" type="line"/>
      <point x="360" y="800" type="line"/>
      <point x="400" y="800" type="line"/>
      <point x="440" y="760" type="line"/>
      <point x="440" y="720" type="line"/>
      <point x="240" y="640" type="line"/>
    </contour>
    <component base="a" xOffset="20"/>
  </outline>
</glyph>
<glyph name="ae" format="1">
  <advance width="840"/>
  <unicode hex="00E6"/>
  <outline>
    <contour>
      <point x="480" y="520" type="line"/>
      <point x="560" y="560" type="line"/>
      <point x="640" y="560" type="line"/>
      <point x="760" y="520" type="line"/>
      <point x="840" y="400" type="line"/>
      <point x="800" y="320" type="line"/>
      <point x="480" y="280" type="line"/>
      <point x="520" y="120" type="line"/>
      <point x="600" y="40" type="line"/>
      <point x="680" y="80" type="line"/>
      <point x="720" y="160" type="line"/>
      <point x="800" y="80" type="line"/>
      <point x="760" y="40" type="line"/>
      <point x="640" y="0" type="line"/>
      <point x="560" y="0" type="line"/>
      <point x="480" y="40" type="line"/>
      <point x="440" y="120" type="line"/>
      <point x="400" y="40" type="line"/>
      <point x="320" y="0" type="line"/>
      <point x="200" y="0" type="line"/>
      <point x="120" y="40" type="line"/>
      <point x="40" y="160" type="line"/>
      <point x="80" y="280" type="line"/>
      <point x="160" y="320" type="line"/>
      <point x="400" y="320" type="line"/>
      <point x="360" y="440" type="line"/>
      <point x="280" y="520" type="line"/>
      <point x="200" y="480" type="line"/>
      <point x="160" y="400" type="line"/>
      <point x="80" y="480" type="line"/>
      <point x="120" y="520" type="line"/>
      <point x="240" y="560" type="line"/>
      <point x="320" y="560" type="line"/>
      <point x="400" y="520" type="line"/>
      <point x="440" y="440" type="line"/>
    </contour>
    <contour>
      <point x="400" y="280" type="line"/>
      <point x="200" y="240" type="line"/>
      <point x="160" y="160" type="line"/>
      <point x="200" y="80" type="line"/>
      <point x="280" y="80" type="line"/>
      <point x="360" y="120" type="line"/>
    </contour>
    <contour>
      <point x="600" y="520" type="line"/>
      <point x="520" y="440" type="line"/>
      <point x="480" y="320" type="line"/>
      <point x="680" y="360" type="line"/>
      <point x="680" y="480" type="line"/>
    </contour>
  </outline>
</glyph>
<glyph name="ccedilla" format="1">
  <advance width="520"/>
  <unicode hex="00E7"/>
  <outline>
    <contour>
      <point x="200" y="-40" type="line"/>
      <point x="200" y="-80" type="line"/>
      <point x="320" y="-119" type="line"/>
      <point x="280" y="-200" type="line"/>
      <point x="240" y="-200" type="line"/>
      <point x="200" y="-120" type="line"/>
      <point x="160" y="-160" type="line"/>
      <point x="200" y="-240" type="line"/>
      <point x="321" y="-240" type="line"/>
      <point x="360" y="-160" type="line"/>
      <point x="360" y="-80" type="line"/>
      <point x="257" y="-45" type="line"/>
      <point x="280" y="0" type="line"/>
      <point x="360" y="0" type="line"/>
      <point x="440" y="40" type="line"/>
      <point x="520" y="120" type="line"/>
      <point x="440" y="160" type="line"/>
      <point x="400" y="80" type="line"/>
      <point x="320" y="40" type="line"/>
      <point x="200" y="80" type="line"/>
      <point x="160" y="240" type="line"/>
      <point x="160" y="320" type="line"/>
      <point x="200" y="480" type="line"/>
      <point x="280" y="520" type="line"/>
      <point x="360" y="480" type="line"/>
      <point x="360" y="360" type="line"/>
      <point x="400" y="360" type="line"/>
      <point x="480" y="440" type="line"/>
      <point x="440" y="520" type="line"/>
      <point x="320" y="560" type="line"/>
      <point x="240" y="560" type="line"/>
      <point x="120" y="520" type="line"/>
      <point x="40" y="360" type="line"/>
      <point x="40" y="200" type="line"/>
      <point x="120" y="40" type="line"/>
      <point x="223" y="5" type="line"/>
    </contour>
  </outline>
</glyph>
<glyph name="eacute" format="1">
  <advance width="520"/>
  <unicode hex="00E9"/>
  <outline>
    <contour>
      <point x="240" y="640" type="line"/>
      <point x="400" y="800" type="line"/>
      <point x="440" y="800" type="line"/>
      <point x="480" y="760" type="line"/>
      <point x="480" y="720" type="line"/>
      <point x="280" y="640" type="line"/>
    </contour>
    <component base="e"/>
  </outline>
</glyph>
<glyph name="ocircumflex" format="1">
  <advance width="560"/>
  <unicode hex="00F4"/>
  <outline>
    <contour>
      <point x="120" y="640" type="line"/>
      <point x="240" y="800" type="line"/>
      <point x="320" y="800" type="line"/>
      <point x="440" y="640" type="line"/>
      <point x="400" y="640" type="line"/>
      <point x="280" y="720" type="line"/>
      <point x="160" y="640" type="line"/>
    </contour>
    <component base="o"/>
  </outline>
</glyph>
<glyph name="divide" format="1">
  <advance width="480"/>
  <unicode hex="00F7"/>
  <outline>
    <contour>
      <point x="80" y="320" type="line"/>
      <point x="440" y="320" type="line"/>
      <point x="440" y="280" type="line"/>
      <point x="80" y="280" type="line"/>
    </contour>
    <contour>
      <point x="240" y="520" type="line"/>
      <point x="280" y="520" type="line"/>
      <point x="320" y="480" type="line"/>
      <point x="320" y="440" type="line"/>
      <point x="280" y="400" type="line"/>
      <point x="240" y="400" type="line"/>
      <point x="200" y="440" type="line"/>
      <point x="200" y="480" type="line"/>
    </contour>
    <contour>
      <point x="280" y="80" type="line"/>
      <point x="240" y="80" type="line"/>
      <point x="200" y="120" type="line"/>
      <point x="200" y="160" type="line"/>
      <point x="240" y="200" type="line"/>
      <point x="280" y="200" type="line"/>
      <point x="320" y="160" type="line"/>
      <point x="320" y="120" type="line"/>
    </contour>
  </outline>
</glyph>
<glyph name="oslash" format="1">
  <advance width="560"/>
  <unicode hex="00F8"/>
  <outline>
    <contour>
      <point x="400" y="640" type="line"/>
      <point x="440" y="640" type="line"/>
      <point x="160" y="-80" type="line"/>
      <point x="120" y="-80" type="line"/>
    </contour>
    <component base="o"/>
  </outline>
</glyph>
<glyph name="dotlessi" format="1">
  <advance width="360"/>
  <unicode hex="0131"/>
  <outline>
    <contour>
      <point x="40" y="480" type="line"/>
      <point x="240" y="560" type="line"/>
      <point x="240" y="80" type="line"/>
      <point x="320" y="0" type="line"/>
      <point x="40" y="0" type="line"/>
      <point x="120" y="80" type="line"/>
      <point x="120" y="440" type="line"/>
    </contour>
  </outline>
</glyph>
<glyph name="OE" format="1">
  <advance width="1120"/>
  <unicode hex="0152"/>
  <outline>
    <contour>
      <point x="1080" y="240" type="line"/>
      <point x="1040" y="-40" type="line"/>
      <point x="960" y="0" type="line"/>
      <point x="360" y="0" type="line"/>
      <point x="200" y="80" type="line"/>
      <point x="120" y="200" type="line"/>
      <point x="80" y="400" type="line"/>
      <point x="120" y="600" type="line"/>
      <point x="200" y="720" type="line"/>
      <point x="360" y="800" type="line"/>
      <point x="840" y="800" type="line"/>
      <point x="1000" y="840" type="line"/>
      <point x="1040" y="600" type="line"/>
      <point x="1000" y="600" type="line"/>
      <point x="880" y="760" type="line"/>
      <point x="680" y="760" type="line"/>
      <point x="640" y="720" type="line"/>
      <point x="640" y="480" type="line"/>
      <point x="680" y="440" type="line"/>
      <point x="840" y="440" type="line"/>
      <point x="920" y="520" type="line"/>
      <point x="920" y="320" type="line"/>
      <point x="840" y="400" type="line"/>
      <point x="680" y="400" type="line"/>
      <point x="640" y="360" type="line"/>
      <point x="640" y="80" type="line"/>
      <point x="680" y="40" type="line"/>
      <point x="920" y="40" type="line"/>
      <point x="1040" y="240" type="line"/>
    </contour>
    <contour>
      <point x="520" y="40" type="line"/>
      <point x="520" y="760" type="line"/>
      <point x="440" y="760" type="line"/>
      <point x="320" y="680" type="line"/>
      <point x="240" y="560" type="line"/>
      <point x="240" y="240" type="line"/>
      <point x="320" y="120" type="line"/>
      <point x="440" y="40" type="line"/>
    </contour>
  </outline>
</glyph>
<glyph name="oe" format="1">
  <advance width="880"/>
  <unicode hex="0153"/>
  <outline>
    <contour>
      <point x="600" y="560" type="line"/>
      <point x="680" y="560" type="line"/>
      <point x="800" y="520" type="line"/>
      <point x="880" y="400" type="line"/>
      <point x="840" y="320" type="line"/>
      <point x="520" y="240" type="line"/>
      <point x="560" y="80" type="line"/>
      <point x="680" y="40" type="line"/>
      <point x="760" y="80" type="line"/>
      <point x="840" y="160" type="line"/>
      <point x="880" y="120" type="line"/>
      <point x="800" y="40" type="line"/>
      <point x="720" y="0" type="line"/>
      <point x="600" y="0" type="line"/>
      <point x="480" y="40" type="line"/>
      <point x="480" y="200" type="line"/>
      <point x="440" y="40" type="line"/>
      <point x="320" y="0" type="line"/>
      <point x="240" y="0" type="line"/>
      <point x="120" y="40" type="line"/>
      <point x="40" y="200" type="line"/>
      <point x="40" y="360" type="line"/>
      <point x="120" y="520" type="line"/>
      <point x="240" y="560" type="line"/>
      <point x="320" y="560" type="line"/>
      <point x="440" y="520" type="line"/>
      <point x="440" y="360" type="line"/>
      <point x="480" y="520" type="line"/>
    </contour>
    <contour>
      <point x="280" y="520" type="line"/>
      <point x="200" y="480" type="line"/>
      <point x="160" y="280" type="line"/>
      <point x="200" y="80" type="line"/>
      <point x="280" y="40" type="line"/>
      <point x="360" y="80" type="line"/>
      <point x="400" y="280" type="line"/>
      <point x="360" y="480" type="line"/>
    </contour>
    <contour>
      <point x="640" y="520" type="line"/>
      <point x="560" y="480" type="line"/>
      <point x="520" y="280" type="line"/>
      <point x="720" y="360" type="line"/>
      <point x="720" y="480" type="line"/>
    </contour>
  </outline>
</glyph>
<glyph name="circumflex" format="1">
  <advance width="833"/>
  <unicode hex="02C6"/>
  <outline>
    <contour>
      <point x="160" y="640" type="line"/>
      <point x="280" y="800" type="line"/>
      <point x="360" y="800" type="line"/>
      <point x="480" y="640" type="line"/>
      <point x="440" y="640" type="line"/>
      <point x="320" y="720" type="line"/>
      <point x="200" y="640" type="line"/>
    </contour>
  </outline>
</glyph>
<glyph name="caron" format="1">
  <advance width="833"/>
  <unicode hex="02C7"/>
  <outline>
    <contour>
      <point x="200" y="800" type="line"/>
      <point x="320" y="720" type="line"/>
      <point x="440" y="800" type="line"/>
      <point x="480" y="800" type="line"/>
      <point x="360" y="640" type="line"/>
      <point x="280" y="640" type="line"/>
      <point x="160" y="800" type="line"/>
    </contour>
  </outline>
</glyph>
<glyph name="breve" format="1">
  <advance width="840"/>
  <unicode hex="02D8"/>
  <outline>
    <contour>
      <point x="400" y="720" type="line"/>
      <point x="320" y="640" type="line"/>
      <point x="280" y="640" type="line"/>
      <point x="200" y="720" type="line"/>
      <point x="160" y="720" type="line"/>
      <point x="200" y="640" type="line"/>
      <point x="280" y="600" type="line"/>
      <point x="320" y="600" type="line"/>
      <point x="400" y="640" type="line"/>
      <point x="440" y="720" type="line"/>
    </contour>
  </outline>
</glyph>
<glyph name="dotaccent" format="1">
  <advance width="833"/>
  <unicode hex="02D9"/>
  <outline>
    <contour>
      <point x="360" y="640" type="line"/>
      <point x="280" y="680" type="line"/>
      <point x="280" y="720" type="line"/>
      <point x="320" y="800" type="line"/>
      <point x="360" y="800" type="line"/>
      <point x="440" y="760" type="line"/>
      <point x="440" y="720" type="line"/>
      <point x="400" y="640" type="line"/>
    </contour>
  </outline>
</glyph>
<glyph name="ring" format="1">
  <advance width="840"/>
  <unicode hex="02DA"/>
  <outline>
    <contour>
      <point x="200" y="720" type="line"/>
      <point x="200" y="680" type="line"/>
      <point x="280" y="600" type="line"/>
      <point x="320" y="600" type="line"/>
      <point x="400" y="680" type="line"/>
      <point x="400" y="720" type="line"/>
      <point x="320" y="800" type="line"/>
      <point x="280" y="800" type="line"/>
    </contour>
    <contour>
      <point x="240" y="680" type="line"/>
      <point x="240" y="720" type="line"/>
      <point x="280" y="760" type="line"/>
      <point x="320" y="760" type="line"/>
      <point x="360" y="720" type="line"/>
      <point x="360" y="680" type="line"/>
      <point x="320" y="640" type="line"/>
      <point x="280" y="640" type="line"/>
    </contour>
  </outline>
</glyph>
<glyph name="tilde" format="1">
  <advance width="833"/>
  <unicode hex="02DC"/>
  <outline>
    <contour>
      <point x="240" y="680" type="line"/>
      <point x="320" y="600" type="line"/>
      <point x="400" y="680" type="line"/>
      <point x="480" y="680" type="line"/>
      <point x="560" y="600" type="line"/>
      <point x="520" y="560" type="line"/>
      <point x="440" y="640" type="line"/>
      <point x="360" y="560" type="line"/>
      <point x="280" y="560" type="line"/>
      <point x="200" y="640" type="line"/>
    </contour>
  </outline>
</glyph>
<glyph name="emdash" format="1">
  <advance width="800"/>
  <unicode hex="2014"/>
  <outline>
    <contour>
      <point x="80" y="320" type="line"/>
      <point x="720" y="320" type="line"/>
      <point x="720" y="280" type="line"/>
      <point x="80" y="280" type="line"/>
    </contour>
  </outline>
</glyph>
<glyph name="quoteleft" format="1">
  <advance width="200"/>
  <unicode hex="2018"/>
  <outline>
    <contour>
      <point x="80" y="760" type="line"/>
      <point x="160" y="640" type="line"/>
      <point x="160" y="600" type="line"/>
      <point x="120" y="560" type="line"/>
      <point x="80" y="560" type="line"/>
      <point x="40" y="600" type="line"/>
      <point x="40" y="800" type="line"/>
    </contour>
  </outline>
</glyph>
<glyph name="quoteright" format="1">
  <advance width="200"/>
  <unicode hex="2019"/>
  <outline>
    <contour>
      <point x="40" y="560" type="line"/>
      <point x="40" y="760" type="line"/>
      <point x="80" y="800" type="line"/>
      <point x="120" y="800" type="line"/>
      <point x="160" y="760" type="line"/>
      <point x="160" y="720" type="line"/>
      <point x="80" y="600" type="line"/>
    </contour>
  </outline>
</glyph>
<glyph name="quotedblleft" format="1">
  <advance width="360"/>
  <unicode hex="201C"/>
  <outline>
    <contour>
      <point x="80" y="760" type="line"/>
      <point x="160" y="640" type="line"/>
      <point x="160" y="600" type="line"/>
      <point x="120" y="560" type="line"/>
      <point x="80" y="560" type="line"/>
      <point x="40" y="600" type="line"/>
      <point x="40" y="800" type="line"/>
    </contour>
    <contour>
      <point x="240" y="760" type="line"/>
      <point x="320" y="640" type="line"/>
      <point x="320" y="600" type="line"/>
      <point x="280" y="560" type="line"/>
      <point x="240" y="560" type="line"/>
      <point x="200" y="600" type="line"/>
      <point x="200" y="800" type="line"/>
    </contour>
  </outline>
</glyph>
<glyph name="quotedblbase" format="1">
  <advance width="360"/>
  <unicode hex="201E"/>
  <outline>
    <contour>
      <point x="40" y="-160" type="line"/>
      <point x="40" y="40" type="line"/>
      <point x="80" y="80" type="line"/>
      <point x="120" y="80" type="line"/>
      <point x="160" y="40" type="line"/>
      <point x="160" y="0" type="line"/>
      <point x="80" y="-120" type="line"/>
    </contour>
    <contour>
      <point x="200" y="-160" type="line"/>
      <point x="200" y="40" type="line"/>
      <point x="240" y="80" type="line"/>
      <point x="280" y="80" type="line"/>
      <point x="320" y="40" type="line"/>
      <point x="320" y="0" type="line"/>
      <point x="240" y="-120" type="line"/>
    </contour>
  </outline>
</glyph>
<glyph name="dagger" format="1">
  <advance width="440"/>
  <unicode hex="2020"/>
  <outline>
    <contour>
      <point x="0" y="560" type="line"/>
      <point x="40" y="600" type="line"/>
      <point x="200" y="560" type="line"/>
      <point x="160" y="800" type="line"/>
      <point x="200" y="840" type="line"/>
      <point x="240" y="840" type="line"/>
      <point x="280" y="800" type="line"/>
      <point x="240" y="560" type="line"/>
      <point x="400" y="600" type="line"/>
      <point x="440" y="560" type="line"/>
      <point x="440" y="520" type="line"/>
      <point x="400" y="480" type="line"/>
      <point x="240" y="520" type="line"/>
      <point x="280" y="40" type="line"/>
      <point x="240" y="0" type="line"/>
      <point x="200" y="0" type="line"/>
      <point x="160" y="40" type="line"/>
      <point x="200" y="520" type="line"/>
      <point x="40" y="480" type="line"/>
      <point x="0" y="520" type="line"/>
    </contour>
  </outline>
</glyph>
<glyph name="daggerdbl" format="1">
  <advance width="440"/>
  <unicode hex="2021"/>
  <outline>
    <contour>
      <point x="440" y="280" type="line"/>
      <point x="400" y="240" type="line"/>
      <point x="240" y="280" type="line"/>
      <point x="280" y="40" type="line"/>
      <point x="240" y="0" type="line"/>
      <point x="200" y="0" type="line"/>
      <point x="160" y="40" type="line"/>
      <point x="200" y="280" type="line"/>
      <point x="40" y="240" type="line"/>
      <point x="0" y="280" type="line"/>
      <point x="0" y="320" type="line"/>
      <point x="40" y="360" type="line"/>
      <point x="200" y="320" type="line"/>
      <point x="200" y="520" type="line"/>
      <point x="40" y="480" type="line"/>
      <point x="0" y="520" type="line"/>
      <point x="0" y="560" type="line"/>
      <point x="40" y="600" type="line"/>
      <point x="200" y="560" type="line"/>
      <point x="160" y="800" type="line"/>
      <point x="200" y="840" type="line"/>
      <point x="240" y="840" type="line"/>
      <point x="280" y="800" type="line"/>
      <point x="240" y="560" type="line"/>
      <point x="400" y="600" type="line"/>
      <point x="440" y="560" type="line"/>
      <point x="440" y="520" type="line"/>
      <point x="400" y="480" type="line"/>
      <point x="240" y="520" type="line"/>
      <point x="240" y="320" type="line"/>
      <point x="400" y="360" type="line"/>
      <point x="440" y="320" type="line"/>
    </contour>
  </outline>
</glyph>
<glyph name="bullet" format="1">
  <advance width="440"/>
  <unicode hex="2022"/>
  <outline>
    <contour>
      <point x="200" y="160" type="line"/>
      <point x="80" y="240" type="line"/>
      <point x="80" y="320" type="line"/>
      <point x="160" y="440" type="line"/>
      <point x="240" y="440" type="line"/>
      <point x="360" y="360" type="line"/>
      <point x="360" y="280" type="line"/>
      <point x="280" y="160" type="line"/>
    </contour>
  </outline>
</glyph>
<glyph name="ellipsis" format="1">
  <advance width="640"/>
  <unicode hex="2026"/>
  <outline>
    <contour>
      <point x="80" y="0" type="line"/>
      <point x="0" y="40" type="line"/>
      <point x="0" y="80" type="line"/>
      <point x="40" y="160" type="line"/>
      <point x="80" y="160" type="line"/>
      <point x="160" y="120" type="line"/>
      <point x="160" y="80" type="line"/>
      <point x="120" y="0" type="line"/>
    </contour>
    <contour>
      <point x="320" y="0" type="line"/>
      <point x="240" y="40" type="line"/>
      <point x="240" y="80" type="line"/>
      <point x="280" y="160" type="line"/>
      <point x="320" y="160" type="line"/>
      <point x="400" y="120" type="line"/>
      <point x="400" y="80" type="line"/>
      <point x="360" y="0" type="line"/>
    </contour>
    <contour>
      <point x="560" y="0" type="line"/>
      <point x="480" y="40" type="line"/>
      <point x="480" y="80" type="line"/>
      <point x="520" y="160" type="line"/>
      <point x="560" y="160" type="line"/>
      <point x="640" y="120" type="line"/>
      <point x="640" y="80" type="line"/>
      <point x="600" y="0" type="line"/>
    </contour>
  </outline>
</glyph>
<glyph name="perthousand" format="1">
  <advance width="1320"/>
  <unicode hex="2030"/>
  <outline>
    <contour>
      <point x="280" y="840" type="line"/>
      <point x="360" y="840" type="line"/>
      <point x="400" y="799" type="line"/>
      <point x="479" y="679" type="line"/>
      <point x="400" y="480" type="line"/>
      <point x="280" y="440" type="line"/>
      <point x="200" y="440" type="line"/>
      <point x="160" y="480" type="line"/>
      <point x="80" y="599" type="line"/>
      <point x="160" y="799" type="line"/>
    </contour>
    <contour>
      <point x="560" y="41" type="line"/>
      <point x="480" y="240" type="line"/>
      <point x="560" y="360" type="line"/>
      <point x="600" y="400" type="line"/>
      <point x="680" y="400" type="line"/>
      <point x="800" y="360" type="line"/>
      <point x="879" y="160" type="line"/>
      <point x="800" y="41" type="line"/>
      <point x="760" y="0" type="line"/>
      <point x="680" y="0" type="line"/>
    </contour>
    <contour>
      <point x="960" y="41" type="line"/>
      <point x="880" y="240" type="line"/>
      <point x="960" y="360" type="line"/>
      <point x="1000" y="400" type="line"/>
      <point x="1080" y="400" type="line"/>
      <point x="1200" y="360" type="line"/>
      <point x="1279" y="160" type="line"/>
      <point x="1200" y="41" type="line"/>
      <point x="1160" y="0" type="line"/>
      <point x="1080" y="0" type="line"/>
    </contour>
    <contour>
      <point x="640" y="800" type="line"/>
      <point x="720" y="800" type="line"/>
      <point x="280" y="0" type="line"/>
      <point x="200" y="0" type="line"/>
    </contour>
    <contour>
      <point x="280" y="799" type="line"/>
      <point x="240" y="759" type="line"/>
      <point x="200" y="600" type="line"/>
      <point x="240" y="520" type="line"/>
      <point x="280" y="480" type="line"/>
      <point x="320" y="520" type="line"/>
      <point x="360" y="680" type="line"/>
      <point x="320" y="759" type="line"/>
    </contour>
    <contour>
      <point x="1120" y="81" type="line"/>
      <point x="1160" y="160" type="line"/>
      <point x="1120" y="320" type="line"/>
      <point x="1080" y="360" type="line"/>
      <point x="1040" y="320" type="line"/>
      <point x="1000" y="240" type="line"/>
      <point x="1040" y="81" type="line"/>
      <point x="1080" y="41" type="line"/>
    </contour>
    <contour>
      <point x="720" y="81" type="line"/>
      <point x="760" y="160" type="line"/>
      <point x="720" y="320" type="line"/>
      <point x="680" y="360" type="line"/>
      <point x="640" y="320" type="line"/>
      <point x="600" y="240" type="line"/>
      <point x="640" y="81" type="line"/>
      <point x="680" y="41" type="line"/>
    </contour>
    <contour>
      <point x="480" y="679" type="line"/>
      <point x="480" y="680" type="line"/>
      <point x="479" y="679" type="line"/>
    </contour>
    <contour>
      <point x="1280" y="160" type="line"/>
      <point x="1280" y="161" type="line"/>
      <point x="1279" y="160" type="line"/>
    </contour>
    <contour>
      <point x="880" y="160" type="line"/>
      <point x="880" y="161" type="line"/>
      <point x="879" y="160" type="line"/>
    </contour>
  </outline>
</glyph>
<glyph name="fraction" format="1">
  <advance width="280"/>
  <unicode hex="2044"/>
  <outline>
    <contour>
      <point x="200" y="840" type="line"/>
      <point x="240" y="840" type="line"/>
      <point x="80" y="-40" type="line"/>
      <point x="40" y="-40" type="line"/>
    </contour>
  </outline>
</glyph>
<glyph name="Euro" format="1">
  <advance width="680"/>
  <unicode hex="20AC"/>
  <outline>
    <contour>
      <point x="520" y="440" type="line"/>
      <point x="200" y="440" type="line"/>
      <point x="200" y="360" type="line"/>
      <point x="440" y="360" type="line"/>
      <point x="440" y="320" type="line"/>
      <point x="200" y="320" type="line"/>
      <point x="200" y="240" type="line"/>
      <point x="280" y="120" type="line"/>
      <point x="400" y="40" type="line"/>
      <point x="520" y="80" type="line"/>
      <point x="560" y="160" type="line"/>
      <point x="640" y="120" type="line"/>
      <point x="480" y="0" type="line"/>
      <point x="320" y="0" type="line"/>
      <point x="160" y="80" type="line"/>
      <point x="80" y="200" type="line"/>
      <point x="56" y="320" type="line"/>
      <point x="0" y="320" type="line"/>
      <point x="0" y="360" type="line"/>
      <point x="48" y="360" type="line"/>
      <point x="40" y="400" type="line"/>
      <point x="48" y="440" type="line"/>
      <point x="0" y="440" type="line"/>
      <point x="0" y="480" type="line"/>
      <point x="56" y="480" type="line"/>
      <point x="80" y="600" type="line"/>
      <point x="160" y="720" type="line"/>
      <point x="320" y="800" type="line"/>
      <point x="440" y="800" type="line"/>
      <point x="600" y="720" type="line"/>
      <point x="640" y="640" type="line"/>
      <point x="560" y="560" type="line"/>
      <point x="480" y="560" type="line"/>
      <point x="480" y="680" type="line"/>
      <point x="400" y="760" type="line"/>
      <point x="320" y="760" type="line"/>
      <point x="240" y="680" type="line"/>
      <point x="200" y="560" type="line"/>
      <point x="200" y="480" type="line"/>
      <point x="520" y="480" type="line"/>
    </contour>
  </outline>
</glyph>
<glyph name="minus" format="1">
  <advance width="560"/>
  <unicode hex="2212"/>
  <outline>
    <contour>
      <point x="40" y="360" type="line"/>
      <point x="520" y="360" type="line"/>
      <point x="520" y="280" type="line"/>
      <point x="40" y="280" type="line"/>
    </contour>
  </outline>
</glyph>
<glyph name="approxequal" format="1">
  <advance width="833"/>
  <unicode hex="2248"/>
  <outline>
    <contour>
      <point x="240" y="520" type="line"/>
      <point x="360" y="440" type="line"/>
      <point x="440" y="520" type="line"/>
      <point x="520" y="520" type="line"/>
      <point x="640" y="400" type="line"/>
      <point x="600" y="360" type="line"/>
      <point x="480" y="440" type="line"/>
      <point x="400" y="360" type="line"/>
      <point x="320" y="360" type="line"/>
      <point x="200" y="480" type="line"/>
    </contour>
    <contour>
      <point x="240" y="320" type="line"/>
      <point x="360" y="240" type="line"/>
      <point x="440" y="320" type="line"/>
      <point x="520" y="320" type="line"/>
      <point x="640" y="200" type="line"/>
      <point x="600" y="160" type="line"/>
      <point x="480" y="240" type="line"/>
      <point x="400" y="160" type="line"/>
      <point x="320" y="160" type="line"/>
      <point x="200" y="280" type="line"/>
    </contour>
  </outline>
</glyph>
<glyph name="notequal" format="1">
  <advance width="520"/>
  <unicode hex="2260"/>
  <outline>
    <contour>
      <point x="320" y="560" type="line"/>
      <point x="400" y="560" type="line"/>
      <point x="160" y="80" type="line"/>
      <point x="80" y="80" type="line"/>
    </contour>
    <component base="equal" xOffset="-40"/>
  </outline>
</glyph>
<glyph name="lessequal" format="1">
  <advance width="520"/>
  <unicode hex="2264"/>
  <outline>
    <contour>
      <point x="80" y="360" type="line"/>
      <point x="80" y="439" type="line"/>
      <point x="440" y="680" type="line"/>
      <point x="480" y="600" type="line"/>
      <point x="120" y="400" type="line"/>
      <point x="480" y="200" type="line"/>
      <point x="440" y="120" type="line"/>
    </contour>
    <component base="minus" yOffset="-280"/>
  </outline>
</glyph>
<glyph name="greaterequal" format="1">
  <advance width="520"/>
  <unicode hex="2265"/>
  <outline>
    <contour>
      <point x="80" y="120" type="line"/>
      <point x="40" y="200" type="line"/>
      <point x="400" y="400" type="line"/>
      <point x="40" y="600" type="line"/>
      <point x="80" y="680" type="line"/>
      <point x="440" y="439" type="line"/>
      <point x="440" y="360" type="line"/>
    </contour>
    <component base="minus" xOffset="-40" yOffset="-280"/>
  </outline>
</glyph>
<glyph name="lozenge" format="1">
  <advance width="560"/>
  <unicode hex="25CA"/>
  <outline>
    <contour>
      <point x="40" y="360" type="line"/>
      <point x="240" y="0" type="line"/>
      <point x="320" y="0" type="line"/>
      <point x="520" y="360" type="line"/>
      <point x="520" y="440" type="line"/>
      <point x="320" y="800" type="line"/>
      <point x="240" y="800" type="line"/>
      <point x="40" y="440" type="line"/>
    </contour>
    <contour>
      <point x="120" y="400" type="line"/>
      <point x="280" y="760" type="line"/>
      <point x="440" y="400" type="line"/>
      <point x="280" y="40" type="line"/>
    </contour>
  </outline>
</glyph>
<glyph name="fi" format="1">
  <advance width="680"/>
  <unicode hex="FB01"/>
  <outline>
    <contour>
      <point x="240" y="520" type="line"/>
      <point x="560" y="520" type="line"/>
      <point x="560" y="80" type="line"/>
      <point x="640" y="0" type="line"/>
      <point x="360" y="0" type="line"/>
      <point x="440" y="80" type="line"/>
      <point x="440" y="440" type="line"/>
      <point x="360" y="480" type="line"/>
      <point x="320" y="480" type="line"/>
      <point x="240" y="440" type="line"/>
      <point x="240" y="80" type="line"/>
      <point x="320" y="0" type="line"/>
      <point x="40" y="0" type="line"/>
      <point x="120" y="80" type="line"/>
      <point x="120" y="440" type="line"/>
      <point x="80" y="480" type="line"/>
      <point x="80" y="520" type="line"/>
      <point x="120" y="520" type="line"/>
      <point x="120" y="680" type="line"/>
      <point x="160" y="760" type="line"/>
      <point x="200" y="800" type="line"/>
      <point x="320" y="840" type="line"/>
      <point x="520" y="800" type="line"/>
      <point x="560" y="720" type="line"/>
      <point x="520" y="640" type="line"/>
      <point x="400" y="680" type="line"/>
      <point x="440" y="760" type="line"/>
      <point x="320" y="800" type="line"/>
      <point x="240" y="720" type="line"/>
    </contour>
  </outline>
</glyph>
<glyph name="fl" format="1">
  <advance width="680"/>
  <unicode hex="FB02"/>
  <outline>
    <contour>
      <point x="440" y="680" type="line"/>
      <point x="400" y="640" type="line"/>
      <point x="320" y="680" type="line"/>
      <point x="360" y="760" type="line"/>
      <point x="280" y="800" type="line"/>
      <point x="240" y="720" type="line"/>
      <point x="240" y="520" type="line"/>
      <point x="360" y="520" type="line"/>
      <point x="360" y="480" type="line"/>
      <point x="320" y="480" type="line"/>
      <point x="240" y="440" type="line"/>
      <point x="240" y="80" type="line"/>
      <point x="320" y="0" type="line"/>
      <point x="40" y="0" type="line"/>
      <point x="120" y="80" type="line"/>
      <point x="120" y="440" type="line"/>
      <point x="80" y="480" type="line"/>
      <point x="80" y="520" type="line"/>
      <point x="120" y="520" type="line"/>
      <point x="120" y="680" type="line"/>
      <point x="160" y="760" type="line"/>
      <point x="200" y="800" type="line"/>
      <point x="280" y="840" type="line"/>
      <point x="440" y="800" type="line"/>
      <point x="560" y="840" type="line"/>
      <point x="560" y="80" type="line"/>
      <point x="640" y="0" type="line"/>
      <point x="360" y="0" type="line"/>
      <point x="440" y="80" type="line"/>
    </contour>
  </outline>
</glyph>
<glyph name="f_f_i" format="1">
  <advance width="1000"/>
  <unicode hex="FB03"/>
  <outline>
    <contour>
      <point x="560" y="520" type="line"/>
      <point x="880" y="520" type="line"/>
      <point x="880" y="80" type="line"/>
      <point x="960" y="0" type="line"/>
      <point x="680" y="0" type="line"/>
      <point x="760" y="80" type="line"/>
      <point x="760" y="440" type="line"/>
      <point x="680" y="480" type="line"/>
      <point x="640" y="480" type="line"/>
      <point x="560" y="440" type="line"/>
      <point x="560" y="80" type="line"/>
      <point x="640" y="0" type="line"/>
      <point x="360" y="0" type="line"/>
      <point x="440" y="80" type="line"/>
      <point x="440" y="440" type="line"/>
      <point x="400" y="480" type="line"/>
      <point x="320" y="480" type="line"/>
      <point x="240" y="440" type="line"/>
      <point x="240" y="80" type="line"/>
      <point x="320" y="0" type="line"/>
      <point x="40" y="0" type="line"/>
      <point x="120" y="80" type="line"/>
      <point x="120" y="440" type="line"/>
      <point x="80" y="480" type="line"/>
      <point x="80" y="520" type="line"/>
      <point x="120" y="520" type="line"/>
      <point x="120" y="680" type="line"/>
      <point x="160" y="760" type="line"/>
      <point x="200" y="800" type="line"/>
      <point x="280" y="840" type="line"/>
      <point x="440" y="800" type="line"/>
      <point x="440" y="720" type="line"/>
      <point x="520" y="800" type="line"/>
      <point x="640" y="840" type="line"/>
      <point x="840" y="800" type="line"/>
      <point x="880" y="720" type="line"/>
      <point x="840" y="640" type="line"/>
      <point x="720" y="680" type="line"/>
      <point x="760" y="760" type="line"/>
      <point x="640" y="800" type="line"/>
      <point x="560" y="720" type="line"/>
    </contour>
    <contour>
      <point x="440" y="680" type="line"/>
      <point x="400" y="640" type="line"/>
      <point x="320" y="680" type="line"/>
      <point x="360" y="760" type="line"/>
      <point x="280" y="800" type="line"/>
      <point x="240" y="720" type="line"/>
      <point x="240" y="520" type="line"/>
      <point x="440" y="520" type="line"/>
    </contour>
  </outline>
</glyph>
<glyph name="f_f_l" format="1">
  <advance width="1000"/>
  <unicode hex="FB04"/>
  <outline>
    <contour>
      <point x="760" y="800" type="line"/>
      <point x="880" y="840" type="line"/>
      <point x="880" y="80" type="line"/>
      <point x="960" y="0" type="line"/>
      <point x="680" y="0" type="line"/>
      <point x="760" y="80" type="line"/>
      <point x="760" y="680" type="line"/>
      <point x="720" y="640" type="line"/>
      <point x="640" y="680" type="line"/>
      <point x="680" y="760" type="line"/>
      <point x="600" y="800" type="line"/>
      <point x="560" y="720" type="line"/>
      <point x="560" y="520" type="line"/>
      <point x="680" y="520" type="line"/>
      <point x="680" y="480" type="line"/>
      <point x="640" y="480" type="line"/>
      <point x="560" y="440" type="line"/>
      <point x="560" y="80" type="line"/>
      <point x="640" y="0" type="line"/>
      <point x="360" y="0" type="line"/>
      <point x="440" y="80" type="line"/>
      <point x="440" y="440" type="line"/>
      <point x="400" y="480" type="line"/>
      <point x="320" y="480" type="line"/>
      <point x="240" y="440" type="line"/>
      <point x="240" y="80" type="line"/>
      <point x="320" y="0" type="line"/>
      <point x="40" y="0" type="line"/>
      <point x="120" y="80" type="line"/>
      <point x="120" y="440" type="line"/>
      <point x="80" y="480" type="line"/>
      <point x="80" y="520" type="line"/>
      <point x="120" y="520" type="line"/>
      <point x="120" y="680" type="line"/>
      <point x="160" y="760" type="line"/>
      <point x="200" y="800" type="line"/>
      <point x="280" y="840" type="line"/>
      <point x="440" y="800" type="line"/>
      <point x="440" y="719" type="line"/>
      <point x="480" y="760" type="line"/>
      <point x="520" y="800" type="line"/>
      <point x="600" y="840" type="line"/>
    </contour>
    <contour>
      <point x="240" y="520" type="line"/>
      <point x="440" y="520" type="line"/>
      <point x="440" y="680" type="line"/>
      <point x="400" y="640" type="line"/>
      <point x="320" y="680" type="line"/>
      <point x="360" y="760" type="line"/>
      <point x="280" y="800" type="line"/>
      <point x="240" y="720" type="line"/>
    </contour>
  </outline>
</glyph>
<glyph name="T_h.dlig" format="1">
  <advance width="1120"/>
  <outline>
    <contour>
      <point x="400" y="760" type="line"/>
      <point x="400" y="80" type="line"/>
      <point x="480" y="0" type="line"/>
      <point x="200" y="0" type="line"/>
      <point x="280" y="80" type="line"/>
      <point x="280" y="760" type="line"/>
      <point x="120" y="720" type="line"/>
      <point x="40" y="600" type="line"/>
      <point x="0" y="600" type="line"/>
      <point x="40" y="840" type="line"/>
      <point x="200" y="800" type="line"/>
      <point x="480" y="800" type="line"/>
      <point x="640" y="840" type="line"/>
      <point x="720" y="800" type="line"/>
      <point x="720" y="440" type="line"/>
      <point x="760" y="520" type="line"/>
      <point x="840" y="560" type="line"/>
      <point x="1000" y="520" type="line"/>
      <point x="1040" y="440" type="line"/>
      <point x="1040" y="80" type="line"/>
      <point x="1120" y="0" type="line"/>
      <point x="840" y="0" type="line"/>
      <point x="920" y="80" type="line"/>
      <point x="920" y="440" type="line"/>
      <point x="880" y="480" type="line"/>
      <point x="800" y="480" type="line"/>
      <point x="720" y="360" type="line"/>
      <point x="720" y="80" type="line"/>
      <point x="800" y="0" type="line"/>
      <point x="520" y="0" type="line"/>
      <point x="600" y="80" type="line"/>
      <point x="600" y="719" type="line"/>
      <point x="560" y="760" type="line"/>
    </contour>
  </outline>
</glyph>
<glyph name="VTF" format="1">
  <advance width="1558"/>
  <outline>
    <contour>
      <point x="918" y="0" type="line"/>
      <point x="998" y="80" type="line"/>
      <point x="998" y="362" type="line"/>
      <point x="960" y="400" type="line"/>
      <point x="800" y="400" type="line"/>
      <point x="800" y="-280" type="line"/>
      <point x="880" y="-360" type="line"/>
      <point x="600" y="-360" type="line"/>
      <point x="680" y="-280" type="line"/>
      <point x="680" y="400" type="line"/>
      <point x="555" y="400" type="line"/>
      <point x="400" y="0" type="line"/>
      <point x="360" y="-40" type="line"/>
      <point x="80" y="720" type="line"/>
      <point x="0" y="800" type="line"/>
      <point x="280" y="800" type="line"/>
      <point x="200" y="720" type="line"/>
      <point x="400" y="200" type="line"/>
      <point x="600" y="720" type="line"/>
      <point x="520" y="800" type="line"/>
      <point x="760" y="800" type="line"/>
      <point x="680" y="720" type="line"/>
      <point x="571" y="440" type="line"/>
      <point x="960" y="440" type="line"/>
      <point x="998" y="459" type="line"/>
      <point x="998" y="720" type="line"/>
      <point x="918" y="800" type="line"/>
      <point x="1318" y="800" type="line"/>
      <point x="1478" y="840" type="line"/>
      <point x="1518" y="600" type="line"/>
      <point x="1478" y="600" type="line"/>
      <point x="1358" y="760" type="line"/>
      <point x="1158" y="760" type="line"/>
      <point x="1118" y="720" type="line"/>
      <point x="1118" y="480" type="line"/>
      <point x="1158" y="440" type="line"/>
      <point x="1318" y="440" type="line"/>
      <point x="1398" y="520" type="line"/>
      <point x="1398" y="320" type="line"/>
      <point x="1318" y="400" type="line"/>
      <point x="1158" y="400" type="line"/>
      <point x="1118" y="360" type="line"/>
      <point x="1118" y="80" type="line"/>
      <point x="1198" y="0" type="line"/>
    </contour>
  </outline>
</glyph>
<glyph name=".notdef" format="1">
  <advance width="360"/>
  <outline>
    <contour>
      <point x="40" y="0" type="line"/>
      <point x="40" y="680" type="line"/>
      <point x="280" y="680" type="line"/>
      <point x="280" y="0" type="line"/>
    </contour>
    <contour>
      <point x="80" y="40" type="line"/>
      <point x="240" y="40" type="line"/>
      <point x="240" y="640" type="line"/>
      <point x="80" y="640" type="line"/>
    </contour>
  </outline>
</glyph>
<glyph name="afii61352" format="1">
  <advance width="1240"/>
  <outline>
    <contour>
      <point x="1000" y="760" type="line"/>
      <point x="1080" y="760" type="line"/>
      <point x="1120" y="719" type="line"/>
      <point x="1199" y="599" type="line"/>
      <point x="1120" y="400" type="line"/>
      <point x="1000" y="360" type="line"/>
      <point x="920" y="360" type="line"/>
      <point x="880" y="400" type="line"/>
      <point x="800" y="519" type="line"/>
      <point x="880" y="719" type="line"/>
    </contour>
    <contour>
      <point x="1000" y="719" type="line"/>
      <point x="960" y="679" type="line"/>
      <point x="920" y="520" type="line"/>
      <point x="960" y="440" type="line"/>
      <point x="1000" y="400" type="line"/>
      <point x="1040" y="440" type="line"/>
      <point x="1080" y="600" type="line"/>
      <point x="1040" y="679" type="line"/>
    </contour>
    <contour>
      <point x="1200" y="599" type="line"/>
      <point x="1200" y="600" type="line"/>
      <point x="1199" y="599" type="line"/>
    </contour>
    <component base="N"/>
    <component base="endash" xOffset="760" yOffset="-40"/>
  </outline>
</glyph>
<glyph name="f_h.dlig" format="1">
  <advance width="960"/>
  <outline>
    <contour>
      <point x="240" y="520" type="line"/>
      <point x="360" y="520" type="line"/>
      <point x="360" y="480" type="line"/>
      <point x="320" y="480" type="line"/>
      <point x="240" y="440" type="line"/>
      <point x="240" y="80" type="line"/>
      <point x="320" y="0" type="line"/>
      <point x="40" y="0" type="line"/>
      <point x="120" y="80" type="line"/>
      <point x="120" y="440" type="line"/>
      <point x="80" y="480" type="line"/>
      <point x="80" y="520" type="line"/>
      <point x="120" y="520" type="line"/>
      <point x="120" y="680" type="line"/>
      <point x="160" y="760" type="line"/>
      <point x="200" y="800" type="line"/>
      <point x="280" y="840" type="line"/>
      <point x="440" y="800" type="line"/>
      <point x="560" y="840" type="line"/>
      <point x="560" y="440" type="line"/>
      <point x="600" y="520" type="line"/>
      <point x="680" y="560" type="line"/>
      <point x="840" y="520" type="line"/>
      <point x="880" y="440" type="line"/>
      <point x="880" y="80" type="line"/>
      <point x="960" y="0" type="line"/>
      <point x="680" y="0" type="line"/>
      <point x="760" y="80" type="line"/>
      <point x="760" y="440" type="line"/>
      <point x="720" y="480" type="line"/>
      <point x="640" y="480" type="line"/>
      <point x="560" y="360" type="line"/>
      <point x="560" y="80" type="line"/>
      <point x="640" y="0" type="line"/>
      <point x="360" y="0" type="line"/>
      <point x="440" y="80" type="line"/>
      <point x="440" y="680" type="line"/>
      <point x="400" y="640" type="line"/>
      <point x="320" y="680" type="line"/>
      <point x="360" y="760" type="line"/>
      <point x="280" y="800" type="line"/>
      <point x="240" y="720" type="line"/>
    </contour>
  </outline>
</glyph>
<glyph name="f_k.dlig" format="1">
  <advance width="880"/>
  <outline>
    <contour>
      <point x="240" y="520" type="line"/>
      <point x="360" y="520" type="line"/>
      <point x="360" y="480" type="line"/>
      <point x="320" y="480" type="line"/>
      <point x="240" y="440" type="line"/>
      <point x="240" y="80" type="line"/>
      <point x="320" y="0" type="line"/>
      <point x="40" y="0" type="line"/>
      <point x="120" y="80" type="line"/>
      <point x="120" y="440" type="line"/>
      <point x="80" y="480" type="line"/>
      <point x="80" y="520" type="line"/>
      <point x="120" y="520" type="line"/>
      <point x="120" y="680" type="line"/>
      <point x="160" y="760" type="line"/>
      <point x="200" y="800" type="line"/>
      <point x="280" y="840" type="line"/>
      <point x="440" y="800" type="line"/>
      <point x="560" y="840" type="line"/>
      <point x="560" y="280" type="line"/>
      <point x="720" y="440" type="line"/>
      <point x="640" y="520" type="line"/>
      <point x="880" y="520" type="line"/>
      <point x="680" y="320" type="line"/>
      <point x="920" y="0" type="line"/>
      <point x="880" y="-40" type="line"/>
      <point x="760" y="40" type="line"/>
      <point x="600" y="240" type="line"/>
      <point x="560" y="200" type="line"/>
      <point x="560" y="80" type="line"/>
      <point x="640" y="0" type="line"/>
      <point x="360" y="0" type="line"/>
      <point x="440" y="80" type="line"/>
      <point x="440" y="680" type="line"/>
      <point x="400" y="640" type="line"/>
      <point x="320" y="680" type="line"/>
      <point x="360" y="760" type="line"/>
      <point x="280" y="800" type="line"/>
      <point x="240" y="720" type="line"/>
    </contour>
  </outline>
</glyph>
<glyph name="q_j.dlig" format="1">
  <advance width="961"/>
  <outline>
    <contour>
      <point x="640" y="480" type="line"/>
      <point x="560" y="440" type="line"/>
      <point x="560" y="-240" type="line"/>
      <point x="600" y="-280" type="line"/>
      <point x="720" y="-160" type="line"/>
      <point x="760" y="-40" type="line"/>
      <point x="760" y="440" type="line"/>
      <point x="680" y="480" type="line"/>
      <point x="880" y="560" type="line"/>
      <point x="880" y="-40" type="line"/>
      <point x="800" y="-200" type="line"/>
      <point x="640" y="-320" type="line"/>
      <point x="360" y="-320" type="line"/>
      <point x="440" y="-240" type="line"/>
      <point x="440" y="40" type="line"/>
      <point x="360" y="0" type="line"/>
      <point x="280" y="0" type="line"/>
      <point x="160" y="40" type="line"/>
      <point x="80" y="200" type="line"/>
      <point x="80" y="360" type="line"/>
      <point x="160" y="520" type="line"/>
      <point x="320" y="560" type="line"/>
      <point x="400" y="520" type="line"/>
      <point x="480" y="440" type="line"/>
      <point x="520" y="560" type="line"/>
    </contour>
    <contour>
      <point x="360" y="480" type="line"/>
      <point x="240" y="480" type="line"/>
      <point x="200" y="280" type="line"/>
      <point x="240" y="80" type="line"/>
      <point x="320" y="40" type="line"/>
      <point x="400" y="80" type="line"/>
      <point x="440" y="160" type="line"/>
      <point x="440" y="400" type="line"/>
    </contour>
    <contour>
      <point x="800" y="640" type="line"/>
      <point x="720" y="680" type="line"/>
      <point x="720" y="720" type="line"/>
      <point x="760" y="800" type="line"/>
      <point x="800" y="800" type="line"/>
      <point x="880" y="760" type="line"/>
      <point x="880" y="720" type="line"/>
      <point x="840" y="640" type="line"/>
    </contour>
  </outline>
</glyph>
